<?xml version="1.0" encoding="UTF-8" standalone="no"?>
<!-- Created with Inkscape (http://www.inkscape.org/) -->
<svg id="svg8517" xmlns:rdf="http://www.w3.org/1999/02/22-rdf-syntax-ns#" xmlns="http://www.w3.org/2000/svg" height="96" width="96" version="1.1" xmlns:cc="http://creativecommons.org/ns#" xmlns:xlink="http://www.w3.org/1999/xlink" xmlns:dc="http://purl.org/dc/elements/1.1/">
 <defs id="defs8519">
  <linearGradient id="linearGradient4076-7-9">
   <stop id="stop4078-6-3" style="stop-color:#fff;stop-opacity:0" offset="0"/>
   <stop id="stop4080-9" style="stop-color:#fff;stop-opacity:.6964" offset=".5"/>
   <stop id="stop4080-7-0" style="stop-color:#fff;stop-opacity:0" offset="1"/>
  </linearGradient>
  <filter id="filter4144-8" color-interpolation-filters="sRGB">
   <feGaussianBlur id="feGaussianBlur4146-8" stdDeviation="1.575"/>
  </filter>
  <linearGradient id="linearGradient4163-5">
   <stop id="stop4165-0" style="stop-color:#fff" offset="0"/>
   <stop id="stop4167-9" style="stop-color:#fff;stop-opacity:0" offset="1"/>
  </linearGradient>
  <filter id="filter4809-6" width="1.925" y="-.116" x="-.4627" height="1.232" color-interpolation-filters="sRGB">
   <feGaussianBlur id="feGaussianBlur4811-3" stdDeviation="3.605534"/>
  </filter>
  <linearGradient id="linearGradient4604-8">
   <stop id="stop4606-5" offset="0"/>
   <stop id="stop4608-6" style="stop-opacity:0" offset="1"/>
  </linearGradient>
  <filter id="filter4813-9" width="1.076" y="-.1424" x="-.03801" height="1.285" color-interpolation-filters="sRGB">
   <feGaussianBlur id="feGaussianBlur4815-8" stdDeviation="3.856327"/>
  </filter>
  <linearGradient id="linearGradient4050-8">
   <stop id="stop4052-1" style="stop-color:#232323" offset="0"/>
   <stop id="stop4054-0" style="stop-color:#3a3a3a" offset="1"/>
  </linearGradient>
  <mask id="mask4118-3" maskUnits="userSpaceOnUse">
   <path id="path4120-0" style="fill:url(#radialGradient4122-4)" d="m474.5 252a9.75 9.75 0 1 1 -19.5 0 9.75 9.75 0 1 1 19.5 0z" transform="translate(-2.3,-6.1)"/>
  </mask>
  <radialGradient id="radialGradient4122-4" xlink:href="#linearGradient4076-7-9" gradientUnits="userSpaceOnUse" cy="252" cx="464.8" r="9.75"/>
  <filter id="filter4076-4" color-interpolation-filters="sRGB">
   <feGaussianBlur id="feGaussianBlur4078-4" stdDeviation="0.7875"/>
  </filter>
  <filter id="filter5137-7" color-interpolation-filters="sRGB">
   <feGaussianBlur id="feGaussianBlur5139-8" stdDeviation="4.564"/>
  </filter>
  <linearGradient id="linearGradient4519-1">
   <stop id="stop4521-8" style="stop-color:#494949" offset="0"/>
   <stop id="stop4523-5" style="stop-color:#6b6b6b" offset=".23740"/>
   <stop id="stop4525-9" style="stop-color:#e6e6e6" offset=".60717"/>
   <stop id="stop4527-7" style="stop-color:#616161" offset=".74509"/>
   <stop id="stop4529-5" style="stop-color:#1a1a1a" offset="1"/>
  </linearGradient>
  <linearGradient id="linearGradient4511-3">
   <stop id="stop4513-8" style="stop-color:#bcbcbc" offset="0"/>
   <stop id="stop4515-8" style="stop-color:#434343" offset="1"/>
  </linearGradient>
  <linearGradient id="linearGradient4184" y2="171.3" xlink:href="#linearGradient4519-1" gradientUnits="userSpaceOnUse" x2="161.7" y1="165.6" x1="124"/>
  <radialGradient id="radialGradient4186" xlink:href="#linearGradient4511-3" gradientUnits="userSpaceOnUse" cy="142.9" cx="137.5" gradientTransform="matrix(-1.408 .269 -.0776 -.4062 356.5 169.3)" r="19.75"/>
  <linearGradient id="linearGradient4188" y2="158.8" xlink:href="#linearGradient4519-1" gradientUnits="userSpaceOnUse" x2="164.7" y1="165.6" x1="124"/>
  <linearGradient id="linearGradient4192" y2="165.6" xlink:href="#linearGradient4519-1" gradientUnits="userSpaceOnUse" x2="163.9" y1="165.6" x1="124"/>
  <linearGradient id="linearGradient4196" y2="441.8" gradientUnits="userSpaceOnUse" x2="189.4" gradientTransform="matrix(.2685 0 0 .2676 -89.29 370.9)" y1="178" x1="189.4">
   <stop id="stop3872-7" style="stop-color:#1d1d1d" offset="0"/>
   <stop id="stop3874-4" style="stop-color:#6c6c6c" offset="1"/>
  </linearGradient>
  <linearGradient id="linearGradient4198" y2="265.9" xlink:href="#linearGradient4604-8" gradientUnits="userSpaceOnUse" x2="344.7" gradientTransform="matrix(-.2685 0 0 .2953 36.96 366)" y1="259.1" x1="369.9"/>
  <linearGradient id="linearGradient4200" y2="244" gradientUnits="userSpaceOnUse" x2="210" gradientTransform="matrix(.2685 0 0 .2685 -89.29 374.1)" y1="347.7" x1="210">
   <stop id="stop3763-2" offset="0"/>
   <stop id="stop3765-1" style="stop-color:#3b3b3b" offset="1"/>
  </linearGradient>
  <radialGradient id="radialGradient4202" xlink:href="#linearGradient4076-7-9" gradientUnits="userSpaceOnUse" cy="478.4" cx="42.47" gradientTransform="matrix(1.777 .0092 -.00002581 .0907 87.72 666.8)" r="125"/>
  <linearGradient id="linearGradient4204" y2="248" xlink:href="#linearGradient4050-8" gradientUnits="userSpaceOnUse" x2="261.3" gradientTransform="matrix(.2685 0 0 .2685 -96.59 380.8)" y1="256.5" x1="261.3"/>
  <linearGradient id="linearGradient4206" y2="194.4" xlink:href="#linearGradient4163-5" gradientUnits="userSpaceOnUse" x2="179.3" gradientTransform="matrix(.2476 0 0 .3404 -84.39 357.3)" y1="305.9" x1="220.4"/>
  <radialGradient id="radialGradient4208" xlink:href="#linearGradient4163-5" gradientUnits="userSpaceOnUse" cy="211.6" cx="257" gradientTransform="matrix(.2685 0 0 .075 -96.59 418.7)" r="105.8"/>
  <radialGradient id="radialGradient4210" xlink:href="#linearGradient4050-8" gradientUnits="userSpaceOnUse" cy="251.5" cx="457" r="10.75"/>
  <radialGradient id="radialGradient4212" gradientUnits="userSpaceOnUse" cy="650.4" cx="47.3" gradientTransform="matrix(.0433 -.0749 .2252 .13 7.26 644.5)" r="125">
   <stop id="stop11570-1" style="stop-color:#fff;stop-opacity:.6964" offset="0"/>
   <stop id="stop11572-5" style="stop-color:#fff;stop-opacity:0" offset="1"/>
  </radialGradient>
  <linearGradient id="linearGradient4214" y2="265.9" xlink:href="#linearGradient4604-8" gradientUnits="userSpaceOnUse" x2="344.7" gradientTransform="matrix(.2685 0 0 .2979 -89.29 365.3)" y1="259.1" x1="369.9"/>
  <radialGradient id="radialGradient4216" xlink:href="#linearGradient4163-5" gradientUnits="userSpaceOnUse" cy="224.1" cx="152" gradientTransform="matrix(1.467,9.499e-5,0,6.38,-54.13,-721)" r="11.37"/>
  <radialGradient id="radialGradient4218" xlink:href="#linearGradient4076-7-9" gradientUnits="userSpaceOnUse" cy="654.7" cx="32.13" gradientTransform="matrix(1.961 0 .0062 .3212 82.18 513)" r="125"/>
  <linearGradient id="linearGradient4220" y2="751.2" gradientUnits="userSpaceOnUse" x2="341.2" gradientTransform="matrix(.2749 0 0 .2632 -90.99 260.6)" y1="751.2" x1="149.6">
   <stop id="stop3886-8-4" style="stop-color:#6c6c6c" offset="0"/>
   <stop id="stop5304-9-8" style="stop-color:#777" offset=".4625"/>
   <stop id="stop5302-3-1" style="stop-color:#ececec" offset=".925"/>
   <stop id="stop3888-6-2" style="stop-color:#999" offset="1"/>
  </linearGradient>
  <radialGradient id="radialGradient4222" gradientUnits="userSpaceOnUse" cy="816.6" cx="234.8" gradientTransform="matrix(0.5314,2.732e-6,-9.372e-7,0.1688,-151.3,326.8)" r="106">
   <stop id="stop4505-4-6" style="stop-color:#fff" offset="0"/>
   <stop id="stop4507-8-3" style="stop-opacity:0" offset="1"/>
  </radialGradient>
  <linearGradient id="linearGradient4224" y2="817" gradientUnits="userSpaceOnUse" x2="245" gradientTransform="matrix(.2705 0 0 .2781 -89.99 249.6)" y1="761.4" x1="245">
   <stop id="stop4217-9-9" style="stop-color:#141414" offset="0"/>
   <stop id="stop4225-4-7" style="stop-color:#343434" offset=".55005"/>
   <stop id="stop4223-6-7" style="stop-color:#3f3f3f" offset=".55005"/>
   <stop id="stop4219-9-6" style="stop-color:#767676" offset="1"/>
  </linearGradient>
  <radialGradient id="radialGradient4226" gradientUnits="userSpaceOnUse" cy="757.1" cx="229.5" gradientTransform="matrix(.2705 -2.579e-7 0 .2615 -89.99 263.2)" r="106.2">
   <stop id="stop4229-4-3" style="stop-color:#fff" offset="0"/>
   <stop id="stop4231-7-6" style="stop-color:#b8b8b8" offset="1"/>
  </radialGradient>
  <linearGradient id="linearGradient4228" y2="873" gradientUnits="userSpaceOnUse" x2="220" gradientTransform="matrix(.2685 0 0 .2685 -85.99 236.7)" y1="855.9" x1="220">
   <stop id="stop4178-5-1" offset="0"/>
   <stop id="stop4180-4-1" style="stop-color:#545454" offset="1"/>
  </linearGradient>
 </defs>
 <metadata id="metadata8522">
  <rdf:RDF>
   <cc:Work rdf:about="">
    <dc:format>image/svg+xml</dc:format>
    <dc:type rdf:resource="http://purl.org/dc/dcmitype/StillImage"/>
    <dc:title/>
   </cc:Work>
  </rdf:RDF>
 </metadata>
 <g id="layer3" transform="translate(0,-308)">
  <g id="g4144" transform="translate(74.75,-94.69)">
   <path id="path3377" style="opacity:.25;filter:url(#filter5137-7);fill:#151515" d="m169 684.8h210c5.5 0 9.4 4.5 10 10l10 95c0.6 5.5-4.5 10-10 10h-230c-5.5 0-10.6-4.5-10-10l10-95c0.6-5.5 4.5-10 10-10z" transform="matrix(.2685 0 0 .2685 -100.8 256)"/>
   <path id="path3379" style="stroke:url(#radialGradient4186);fill:url(#linearGradient4184)" d="m161.45 165.2c0 10.631-8.6185 19.25-19.25 19.25-10.631 0-19.25-8.6185-19.25-19.25 0-10.631 8.6185-19.25 19.25-19.25 10.631 0 19.25 8.6185 19.25 19.25z" transform="matrix(.2685 0 0 .2685 -79.29 382.3)"/>
   <path id="path3381" style="stroke:url(#radialGradient4186);fill:url(#linearGradient4188)" d="m161.45 165.2c0 10.631-8.6185 19.25-19.25 19.25-10.631 0-19.25-8.6185-19.25-19.25 0-10.631 8.6185-19.25 19.25-19.25 10.631 0 19.25 8.6185 19.25 19.25z" transform="matrix(.2685 0 0 .2685 -49.39 382.3)"/>
   <path id="path3383" style="stroke:url(#radialGradient4186);fill:url(#linearGradient4192)" d="m161.45 165.2c0 10.631-8.6185 19.25-19.25 19.25-10.631 0-19.25-8.6185-19.25-19.25 0-10.631 8.6185-19.25 19.25-19.25 10.631 0 19.25 8.6185 19.25 19.25z" transform="matrix(.2685 0 0 .2685 -64.29 382.3)"/>
   <path id="path3385" style="fill:url(#linearGradient4196)" d="m-53.59 425.6h53.698c1.4005 0 2.3005 1.2 2.6005 2.7l4.5 19c1 4.3-1.5 6.3-5.1 6.1l-59.099-3.1c0.1 0-2.8 0-2.7-0.6l3.4-21.4c0.2-1.5 1.2-2.7 2.7-2.7z"/>
   <path id="path3552" style="opacity:.25;filter:url(#filter5137-7);fill:#151515" d="m169 684.8h210c5.5 0 9.4 4.5 10 10l10 95c0.6 5.5-4.5 10-10 10h-230c-5.5 0-10.6-4.5-10-10l10-95c0.6-5.5 4.5-10 10-10z" transform="matrix(.2109 0 0 .2685 -84.99 263)"/>
   <path id="path3387" style="fill:url(#linearGradient4198)" d="m-53.59 426.2c-1.7 0.7-2.2 1.4-2.5 3l-3.6 20.7c1.1-3.6 10.2-5.3 9.7-9.3l-1.6-11.4c-0.6-2.6 0.5-2.8-2-3z"/>
   <path id="path3389" style="fill:url(#linearGradient4200)" d="m-57.09 447.9h61.699c1.5 0 3 1.2 2.7 2.5l-3.1 15.9c-0.3 1.4-1.2 2.6-2.7 2.6h-56.999c-1.5 0-2.5-1.2-2.7-2.6l-1.6-15.9c-0.1-1.3 1.2-2.5 2.7-2.5z"/>
   <path id="path3393" style="filter:url(#filter4076-4);stroke:url(#radialGradient4202);stroke-width:2;fill:none" d="m156.5 719h230c5.5 0 10 4.5 10 10v45c0 5.5-4.5 10-10 10h-230c-5.5 0-10-4.5-10-10v-45c0-5.5 4.5-10 10-10z" transform="matrix(-.2617 0 0 -.2685 42.46 660.7)"/>
   <rect id="rect3395" style="fill:url(#linearGradient4204)" height="1.342" width="62.77" y="447.8" x="-57.39"/>
   <path id="path3397" d="m-17.29 443.2 7.1 1.6-0.3 1h-7.7z" style="fill:#1db9f1"/>
   <path id="path3399" d="m-29.89 444.8h7.1v1h-7.1z" style="fill:#74db30"/>
   <path id="path3401" style="fill:#fd3146" d="m-34.89 444.8h-7.5l0.2 1h7.7z"/>
   <path id="path3403" style="fill:#2657c6" d="m-18.79 426.1h6l2.6 18.7h-7.7z"/>
   <path id="path3405" style="fill:#49a222" d="m-29.29 426.1h5.9l0.6 18.7h-7.1z"/>
   <path id="path3407" d="m-33.89 426.1h-6l-2.6 18.7h7.7z" style="fill:#b91c27"/>
   <path id="path3409" style="opacity:.1351;stroke:url(#radialGradient4208);stroke-width:.2685;fill:url(#linearGradient4206)" d="m-51.89 426.8c-1.3 0-2.2 0.9-2.4 2.7l-1.4 11.2c-0.1 0.7-0.2 1.2-0.2 1.7 12.2-13.5 41.6-9.7 56.598-15-0.5-0.5-1.1-0.6-1.9995-0.6h-50.599z"/>
   <path id="path3411" style="fill:url(#radialGradient4210)" d="m467.75 251.5c0 5.9371-4.8129 10.75-10.75 10.75s-10.75-4.8129-10.75-10.75 4.8129-10.75 10.75-10.75 10.75 4.8129 10.75 10.75z" mask="url(#mask4118-3)" transform="matrix(.2685 0 0 .2685 -118.4 382.8)"/>
   <path id="path3413" style="filter:url(#filter4813-9);stroke:url(#radialGradient4212);stroke-width:3.7244;fill:none" d="m162.2 719.1h223.5c5.5 0 10 4.5 10 10v45c0 5.5-4.5 10-10 10l-217-0.1c-5.5 0-14.8-4.9-15-10.4l-1.5-44.5c-0.2-5.5 4.5-10 10-10z" transform="matrix(.2685 0 0 .2685 -99.49 255)"/>
   <path id="path3415" style="fill:url(#linearGradient4214)" d="m0.3085 426c1.6005 0.7 2.1005 1.4 2.4005 3l4.6 20.9c0 5-13 4.2-12.5 0l3.5-20.9c0.6-2.6-0.5-2.8 1.9995-3z"/>
   <path id="path3417" style="filter:url(#filter4809-6);stroke:url(#radialGradient4216);stroke-width:7.0931;fill:none" d="m159.4 720c2-3 11.9-68.2 13.2-70.2 2.9-4.4 5.5-4.4 5.5-4.4" transform="matrix(.2685 0 0 .2961 -100.9 235.3)"/>
   <path id="path3419" style="filter:url(#filter4144-8);stroke:url(#radialGradient4218);stroke-width:3.7244;fill:none" d="m160.5 719h230c5.5 0 10 4.5 10 10v45c0 5.5-4.5 10-10 10h-220.2c-5.5 0-8.8-4.6-10-10l-9.8-45c-1.2-5.4 4.5-10 10-10z" transform="matrix(-.2685 0 0 .2685 47.06 255)"/>
   <path id="path3421" style="fill:url(#linearGradient4220)" d="m-53.09 453.2h53.598c0.6005 0 1.6005 0.5 1.4005 1.1 0.3 1.8 0.5 3.9 0.9 7.8 0 0.6-0.8 1.1-1.4 1.1h-55.499c-0.6 0-1.2-0.5-1.1-1.1l1-7.8c0.1-0.6 0.5-1.1 1.1-1.1z"/>
   <path id="path3423" style="fill:url(#radialGradient4222)" d="m-53.09 453.2h54.499c0.6 0 0.7 0.5 0.5 1.1 0.5 3.4 0.5 3.9 0.9 7.8 0 0.6-0.8 1.1-1.4 1.1h-55.499c-0.6 0-1.2-0.5-1.1-1.1l1-7.8c0.1-0.6 0.5-1.1 1.1-1.1z"/>
   <path id="path3425" style="opacity:.9314;stroke:url(#radialGradient4226);stroke-width:1.0217;fill:url(#linearGradient4224)" d="m-53.59 461.3h54.699c0.6 0 1.2 1.4 1.2 1.6l-2.8005 5.3v6c0 0.6-0.5 1.1-1.1995 1.1h-51.899c-0.6 0-1.1-0.5-1.1-1.1v-11.8c0-0.6 0.5-1.1 1.1-1.1z"/>
   <rect id="rect3427" style="fill:#cecece" height="4" width="1" y="460.8" x="-49.19"/>
   <rect id="rect3429" style="fill:url(#linearGradient4228)" rx="0" ry="0" height="1.342" width="49.67" y="466.3" x="-51.09"/>
   <rect id="rect3431" style="fill:#cecece" height="3.999" width="1" y="467.8" x="-46.19"/>
   <rect id="rect3433" style="fill:#cecece" transform="scale(-1,1)" height="3.999" width="1" y="467.8" x="40.19"/>
   <rect id="rect3435" style="fill:#cecece" transform="scale(-1,1)" height="4" width="1" y="460.8" x="42.19"/>
   <rect id="rect3437" style="fill:#cecece" height="4" width="1" y="460.8" x="-38.19"/>
   <rect id="rect3439" style="fill:#cecece" transform="scale(-1,1)" height="4" width="1" y="460.8" x="30.19"/>
   <rect id="rect3441" style="fill:#cecece" transform="scale(-1,1)" height="4" width="1" y="460.8" x="10.19"/>
   <rect id="rect3443" style="fill:#cecece" height="4" width="1" y="460.8" x="-6.191"/>
   <rect id="rect3445" style="fill:#cecece" transform="scale(-1,1)" height="4" width="1" y="460.8" x=".1915"/>
   <rect id="rect3447" style="fill:#cecece" height="4" width="1" y="467.8" x="-9.091"/>
   <rect id="rect3449" style="fill:#cecece" transform="scale(-1,1)" height="4" width="1" y="467.8" x="3.191"/>
  </g>
 </g>
</svg>
