<?xml version="1.0" encoding="UTF-8" standalone="no"?>
<!-- Created with Inkscape (http://www.inkscape.org/) -->

<svg
   xmlns:dc="http://purl.org/dc/elements/1.1/"
   xmlns:cc="http://creativecommons.org/ns#"
   xmlns:rdf="http://www.w3.org/1999/02/22-rdf-syntax-ns#"
   xmlns:svg="http://www.w3.org/2000/svg"
   xmlns="http://www.w3.org/2000/svg"
   xmlns:sodipodi="http://sodipodi.sourceforge.net/DTD/sodipodi-0.dtd"
   xmlns:inkscape="http://www.inkscape.org/namespaces/inkscape"
   width="248.02858"
   height="239.45715"
   id="svg2"
   sodipodi:version="0.32"
   inkscape:version="0.47 r22583"
   sodipodi:docname="pyacidobasic.svg"
   inkscape:output_extension="org.inkscape.output.svg.inkscape"
   version="1.0"
   inkscape:export-filename="/home/georgesk/developpement/copytracker/copytracker-0.6-dfsg/images/minus.png"
   inkscape:export-xdpi="5"
   inkscape:export-ydpi="5">
  <defs
     id="defs4">
    <inkscape:perspective
       sodipodi:type="inkscape:persp3d"
       inkscape:vp_x="0 : 526.18109 : 1"
       inkscape:vp_y="0 : 1000 : 0"
       inkscape:vp_z="744.09448 : 526.18109 : 1"
       inkscape:persp3d-origin="372.04724 : 350.78739 : 1"
       id="perspective10" />
    <inkscape:perspective
       id="perspective2907"
       inkscape:persp3d-origin="0.5 : 0.33333333 : 1"
       inkscape:vp_z="1 : 0.5 : 1"
       inkscape:vp_y="0 : 1000 : 0"
       inkscape:vp_x="0 : 0.5 : 1"
       sodipodi:type="inkscape:persp3d" />
    <inkscape:perspective
       id="perspective3058"
       inkscape:persp3d-origin="0.5 : 0.33333333 : 1"
       inkscape:vp_z="1 : 0.5 : 1"
       inkscape:vp_y="0 : 1000 : 0"
       inkscape:vp_x="0 : 0.5 : 1"
       sodipodi:type="inkscape:persp3d" />
    <inkscape:perspective
       id="perspective3082"
       inkscape:persp3d-origin="0.5 : 0.33333333 : 1"
       inkscape:vp_z="1 : 0.5 : 1"
       inkscape:vp_y="0 : 1000 : 0"
       inkscape:vp_x="0 : 0.5 : 1"
       sodipodi:type="inkscape:persp3d" />
  </defs>
  <sodipodi:namedview
     id="base"
     pagecolor="#ffffff"
     bordercolor="#666666"
     borderopacity="1.0"
     inkscape:pageopacity="0.0"
     inkscape:pageshadow="2"
     inkscape:zoom="1.3642663"
     inkscape:cx="-17.335709"
     inkscape:cy="111.86955"
     inkscape:document-units="px"
     inkscape:current-layer="layer1"
     showgrid="false"
     inkscape:window-width="1680"
     inkscape:window-height="973"
     inkscape:window-x="0"
     inkscape:window-y="27"
     inkscape:window-maximized="1" />
  <metadata
     id="metadata7">
    <rdf:RDF>
      <cc:Work
         rdf:about="">
        <dc:format>image/svg+xml</dc:format>
        <dc:type
           rdf:resource="http://purl.org/dc/dcmitype/StillImage" />
        <dc:title />
      </cc:Work>
    </rdf:RDF>
  </metadata>
  <g
     inkscape:label="Calque 1"
     inkscape:groupmode="layer"
     id="layer1"
     transform="translate(-171.7,-289.77648)">
    <rect
       style="fill:#ffe29e;fill-opacity:1;fill-rule:nonzero;stroke:#000000;stroke-width:16.60000038;stroke-linecap:square;stroke-linejoin:miter;stroke-miterlimit:4;stroke-opacity:1;stroke-dasharray:none;stroke-dashoffset:0"
       id="rect2383"
       width="231.42857"
       height="222.85715"
       x="180.59482"
       y="298.3269"
       ry="71.428574"
       inkscape:export-filename="/home/georgesk/developpement/copytracker/copytracker-0.6-dfsg/images/minus.png"
       inkscape:export-xdpi="5.0800595"
       inkscape:export-ydpi="5.0800595"
       rx="71.428574" />
    <g
       id="g3064"
       transform="matrix(1.1707544,0,0,1.1707544,317.27714,-229.09309)">
      <path
         style="fill:#51a3b5;fill-opacity:1"
         d="m -78.425994,632.60956 c -0.240624,-0.4125 -1.01691,-4.70277 -1.72508,-9.53394 -0.996776,-6.80004 -1.018318,-9.0532 -0.09538,-9.97614 0.674235,-0.67423 5.416871,-1.4198 10.916063,-1.71606 5.348125,-0.28812 10.286361,-0.88792 10.973861,-1.33288 0.981924,-0.63551 1.25,-17.09535 1.25,-76.75 l 0,-75.94098 6,0 6,0 0,76.54569 0,76.54569 6.75,-0.29569 6.75,-0.29569 0.5,-31.0981 c 0.376811,-23.4362 0.820175,-31.48344 1.799528,-32.66214 2.50168,-3.01089 20.024592,-5.54072 20.915862,-3.01967 0.66185,1.87212 -5.759635,5.27198 -9.96539,5.27617 -2.613037,0.003 -3.75,0.44479 -3.75,1.45843 0,0.90711 1.411565,1.68164 3.75,2.05761 7.2276,1.16206 8.25,1.53775 8.25,3.0315 0,2.38672 -4.284051,3.48873 -8.514735,2.1903 -6.305071,-1.93509 -6.485265,-1.15506 -6.485265,28.07366 l 0,25.4255 2.25,-0.66335 c 6.672957,-1.96735 21.91204,-2.90209 29.90636,-1.83441 4.589,0.61289 8.63611,0.81062 8.99358,0.43942 0.35746,-0.37121 0.97295,-12.03742 1.36776,-25.92492 l 0.71782,-25.25 -5.99531,0 c -9.40415,0 -10.80092,-3.87531 -1.99021,-5.5218 4.41972,-0.82593 4.86082,-2.183 1,-3.07657 -6.88333,-1.5931 -12.25,-3.73981 -12.25,-4.9001 0,-1.75577 3.73403,-2.56194 8.5,-1.83514 8.05523,1.2284 22.48323,9.35132 22.50901,12.6725 0.005,0.63861 -1.3968,2.31676 -3.11502,3.72923 -2.84765,2.34091 -3.19256,3.26794 -3.89854,10.47837 -1.04537,10.67662 -0.0376,40.73563 1.3976,41.6882 0.60882,0.40408 3.4196,0.74158 6.24617,0.75 7.31615,0.0218 9.11514,1.83738 11.43753,11.54299 1.04921,4.38478 1.91116,8.53482 1.91545,9.22232 0.006,0.98641 -12.8429,1.25 -60.933183,1.25 -33.517541,0 -61.137857,-0.3375 -61.378481,-0.75 z M -4.51324,534.18929 c -1.19303,-1.70329 -1.59329,-4.72216 -1.59329,-12.01705 0,-11.22043 -0.43594,-11.81268 -8.694934,-11.81268 -4.063096,0 -5.892274,-0.71503 -11.565742,-4.52106 -3.706628,-2.48659 -6.739324,-5.14171 -6.739324,-5.90026 0,-0.84044 2.050827,-1.86121 5.25,-2.61313 2.8875,-0.67866 6.6,-1.93749 8.25,-2.79741 1.65,-0.85991 5.025,-1.81202 7.5,-2.11581 l 4.5,-0.55233 0.28344,-10.11056 c 0.1559,-5.56081 -0.10026,-13.32331 -0.56924,-17.25 l -0.85269,-7.13944 7.88663,0 c 7.03308,0 7.83304,0.1894 7.3914,1.75 -2.40278,8.49054 -4.71833,21.61205 -4.45852,25.26504 l 0.31898,4.48496 6,0.2574 c 8.82425,0.37856 10.09775,0.87516 11.88092,4.63289 2.24938,4.74023 2.04623,6.33641 -1.22251,9.60514 -2.0395,2.0395 -4.60256,3.18804 -9.08022,4.06897 -7.57034,1.48937 -8.07197,2.40367 -8.09293,14.7507 -0.02,11.79653 -2.83658,17.09066 -6.39197,12.01463 z M 7.89347,501.35956 c 2.37251,-2.37251 2.48665,-3.35122 0.5758,-4.93709 -1.65419,-1.37285 -7.53785,-0.54237 -10.26016,1.44824 -1.71349,1.25293 -1.70916,1.39654 0.10262,3.39853 2.40359,2.65594 6.97305,2.69901 9.58174,0.0903 z"
         id="path3070" />
      <path
         style="fill:#e825df;fill-opacity:1"
         d="m -55.729077,622.10956 c 0.348895,-6.1875 0.917252,-45.7875 1.263015,-88 l 0.62866,-76.75 3.199326,0 3.199325,0 -0.08389,67.75 c -0.04614,37.2625 0.277241,76.8625 0.718622,88 l 0.802513,20.25 -5.180964,0 -5.180963,0 0.634355,-11.25 z m 37.340049,6.15842 c -8.614426,-2.02846 -11.717502,-5.03227 -11.717502,-11.34268 0,-3.18931 0.678885,-4.00814 3.096843,-3.73521 0.328263,0.037 4.603263,-0.58295 9.5,-1.37778 10.585777,-1.71826 20.393847,-1.7538 25.903157,-0.0939 4.88186,1.47089 5.22708,3.80815 0.69925,4.73419 -4.30396,0.88026 -4.58433,1.25142 -3.47055,4.59442 1.47413,4.42458 3.64812,3.90083 8.85833,-2.13415 2.63693,-3.05434 5.38359,-5.55335 6.1037,-5.55335 2.75613,0 0.5606,10.30584 -2.44091,11.45763 -0.88573,0.33989 -5.57452,1.50096 -10.41953,2.58017 -9.18122,2.04508 -19.64372,2.39391 -26.112788,0.87062 z m 14.782498,-7.90842 c 0.33992,-0.55 -0.0835,-1 -0.94098,-1 -0.85746,0 -1.55902,0.45 -1.55902,1 0,0.55 0.42344,1 0.94098,1 0.51754,0 1.2191,-0.45 1.55902,-1 z m 0.0359,-86.94195 c -0.35609,-0.57614 -0.9152,-5.77612 -1.24249,-11.55551 -0.59911,-10.57944 -1.13073,-11.98281 -4.79341,-12.65361 -1.59755,-0.29259 -2.10061,-1.37067 -2.5,-5.35761 -0.459304,-4.58507 -0.728654,-5.01754 -3.309286,-5.31346 -3.340305,-0.38304 -3.095663,-2.16442 0.540844,-3.9382 3.446312,-1.681 7.481102,-0.12561 8.821842,3.40078 0.55964,1.47197 2.35157,4.1957 3.98206,6.05273 2.69311,3.06729 2.95384,3.99125 2.84766,10.09163 -0.26842,15.42078 -1.99562,23.07825 -4.34724,19.27325 z m 12.4641,-28.99903 c 0,-0.51754 0.45,-1.2191 1,-1.55902 1.97943,-1.22335 1.05263,-6.37026 -1.58799,-8.81878 -2.17774,-2.01932 -2.33452,-2.49698 -0.98906,-3.01328 2.07823,-0.79749 7.28282,0.25515 8.4181,1.70257 0.48725,0.62122 1.17346,3.01569 1.5249,5.32105 0.54923,3.60275 0.32644,4.41049 -1.58598,5.75 -2.44444,1.71216 -6.77997,2.10699 -6.77997,0.61746 z M -4.53273,494.1797 c -0.2295,-0.72608 -0.68211,-7.84514 -1.0058,-15.82014 -0.3237,-7.975 -0.85999,-15.9625 -1.19177,-17.75 -0.58762,-3.16591 -0.51206,-3.25 2.9205,-3.25 l 3.52373,0 0.65727,8.25 c 0.36149,4.5375 0.51439,12.975 0.33977,18.75 C 0.4079,494.38232 0.291,494.87411 -1.861,495.1797 c -1.23996,0.17607 -2.44224,-0.27393 -2.67173,-1 z"
         id="path3068" />
    </g>
    <rect
       style="fill:none;fill-opacity:1;fill-rule:nonzero;stroke:#000000;stroke-width:16.60000038000000089;stroke-linecap:square;stroke-linejoin:miter;stroke-miterlimit:4;stroke-opacity:1;stroke-dasharray:none;stroke-dashoffset:0"
       id="rect2383-2"
       width="231.42857"
       height="222.85715"
       x="180.59482"
       y="298.3269"
       ry="71.428574"
       inkscape:export-filename="/home/georgesk/developpement/copytracker/copytracker-0.6-dfsg/images/minus.png"
       inkscape:export-xdpi="5.0800595"
       inkscape:export-ydpi="5.0800595"
       rx="71.428574" />
  </g>
</svg>
