<?xml version="1.0" encoding="UTF-8" standalone="no"?>
<!-- Created with Inkscape (http://www.inkscape.org/) -->
<svg
   xmlns:i="http://ns.adobe.com/AdobeIllustrator/10.0/"
   xmlns:dc="http://purl.org/dc/elements/1.1/"
   xmlns:cc="http://web.resource.org/cc/"
   xmlns:rdf="http://www.w3.org/1999/02/22-rdf-syntax-ns#"
   xmlns:svg="http://www.w3.org/2000/svg"
   xmlns="http://www.w3.org/2000/svg"
   xmlns:sodipodi="http://inkscape.sourceforge.net/DTD/sodipodi-0.dtd"
   xmlns:inkscape="http://www.inkscape.org/namespaces/inkscape"
   width="48px"
   height="48px"
   id="svg4069"
   sodipodi:version="0.32"
   inkscape:version="0.43"
   sodipodi:docbase="/home/jfita/amoebax/data"
   sodipodi:docname="amoebax.svg">
  <defs
     id="defs4071" />
  <sodipodi:namedview
     id="base"
     pagecolor="#ffffff"
     bordercolor="#666666"
     borderopacity="1.0"
     inkscape:pageopacity="0.0"
     inkscape:pageshadow="2"
     inkscape:zoom="7"
     inkscape:cx="39.2106"
     inkscape:cy="19.634694"
     inkscape:current-layer="layer1"
     showgrid="true"
     inkscape:grid-bbox="true"
     inkscape:document-units="px"
     inkscape:window-width="798"
     inkscape:window-height="581"
     inkscape:window-x="5"
     inkscape:window-y="49" />
  <metadata
     id="metadata4074">
    <rdf:RDF>
      <cc:Work
         rdf:about="">
        <dc:format>image/svg+xml</dc:format>
        <dc:type
           rdf:resource="http://purl.org/dc/dcmitype/StillImage" />
      </cc:Work>
    </rdf:RDF>
  </metadata>
  <g
     id="layer1"
     inkscape:label="Layer 1"
     inkscape:groupmode="layer">
    <g
       id="g13"
       transform="matrix(0.484428,0,0,0.479426,-0.707684,-143.2419)">
						<g
   id="g15"
   i:knockout="Off">
							<path
   style="fill:#33a02c"
   id="path17"
   d="M 13.938,319.639 C 13.938,319.639 19.287,302.254 49.902,302.277 C 82.59,302.301 87.519,321.706 87.519,321.706 C 87.519,321.706 91.587,331.952 91.239,337.415 C 90.891,342.878 97.44,340.309 97.027,346.096 C 96.614,351.883 91.994,365.847 88.274,369.568 C 84.554,373.289 84.212,384.664 86.279,388.797 C 88.346,392.93 92.479,394.958 87.106,395.371 C 81.733,395.784 60.965,391.37 48.662,391.371 C 37.47,391.372 4.95,396.611 8.257,391.237 C 11.564,385.863 13.111,386.34 13.111,382.529 C 13.111,377.981 13.42,364.715 10.94,362.234 C 8.46,359.753 2.23,346.509 6.363,337.415 C 10.496,328.321 13.938,319.639 13.938,319.639 z "
   i:knockout="Off" />

							<path
   style="fill:#24711f"
   id="path19"
   d="M 17.283,320.668 L 17.271,320.704 C 17.474,320.095 22.557,305.757 49.899,305.776 C 79.175,305.797 83.946,321.913 84.135,322.599 L 84.019,321.704 L 84.019,322.373 L 84.266,322.996 C 85.726,326.68 87.963,333.793 87.746,337.19 C 87.427,342.205 90.876,343.913 92.534,344.733 C 92.893,344.911 93.435,345.179 93.569,345.316 C 93.549,345.296 93.52,345.249 93.51,345.222 C 93.511,345.224 93.568,345.392 93.535,345.843 C 93.149,351.241 88.689,364.198 85.798,367.089 C 80.726,372.162 80.558,385.181 83.148,390.36 C 83.943,391.951 84.952,393.248 85.688,394.193 C 85.97,394.555 86.355,395.05 86.453,395.23 C 86.322,394.992 86.069,394.16 86.464,393.188 C 86.852,392.234 87.604,391.816 87.837,391.744 C 87.827,391.748 87.577,391.822 86.837,391.879 C 84.801,392.036 78.881,391.19 73.156,390.37 C 64.962,389.197 55.674,387.869 48.661,387.869 C 45.038,387.869 39.441,388.38 33.515,388.92 C 25.762,389.627 12.785,390.811 10.331,389.756 C 10.52,389.838 11.123,390.264 11.396,391.127 C 11.656,391.948 11.474,392.688 11.237,393.07 C 12.358,391.249 13.244,390.189 13.955,389.34 C 15.321,387.707 16.611,386.164 16.611,382.528 L 16.616,381.153 C 16.677,369.415 16.184,362.528 13.415,359.758 C 11.513,357.856 6.227,346.172 9.55,338.862 C 11.704,334.122 13.666,329.502 14.932,326.462 L 16.58,322.451 L 17.031,321.331 C 17.048,321.29 17.049,321.243 17.068,321.204 L 17.198,320.944 L 17.283,320.668 z M 3.177,335.966 C -1.867,347.065 5.527,361.77 8.465,364.708 C 8.371,364.614 8.33,364.549 8.329,364.548 C 8.95,365.542 9.678,369.224 9.616,381.118 L 9.611,382.528 C 9.611,383.624 9.611,383.624 8.586,384.848 C 7.774,385.819 6.663,387.148 5.276,389.401 C 4.312,390.967 4.273,392.768 5.172,394.217 C 7.39,397.794 13.341,397.789 34.151,395.891 C 39.914,395.366 45.357,394.87 48.663,394.87 C 55.177,394.87 64.203,396.161 72.166,397.3 C 79.857,398.402 84.707,399.066 87.375,398.861 C 88.687,398.759 91.758,398.523 92.901,395.941 C 93.993,393.471 92.388,391.406 91.215,389.898 C 90.597,389.103 89.896,388.203 89.41,387.231 C 87.82,384.051 88.353,374.437 90.749,372.043 C 95.425,367.367 100.104,352.142 100.519,346.346 C 100.896,341.064 97.346,339.307 95.64,338.462 C 95.297,338.292 94.778,338.035 94.644,337.906 C 94.681,337.943 94.733,338.029 94.747,338.077 C 94.747,338.076 94.713,337.951 94.733,337.638 C 95.12,331.567 91.218,321.538 90.773,320.414 L 90.912,320.844 C 90.683,319.945 84.91,298.804 49.905,298.778 C 17.081,298.755 10.843,317.799 10.593,318.611 L 10.685,318.35 C 10.65,318.435 7.225,327.06 3.177,335.966 z "
   i:knockout="Off" />

						</g>

						<g
   id="g21">
							<g
   id="g23"
   i:knockout="Off">
								<g
   id="g25"
   i:knockout="Off">
									<path
   style="fill:#33a02c"
   id="path27"
   d="M 18.909,355.034 C 20.712,355.299 22.414,355.997 24.416,355.395 C 25.416,355.094 26.417,354.791 27.869,354.553 C 28.87,354.25 29.872,353.946 30.973,353.205 C 31.624,352.398 32.626,352.091 33.728,351.346 C 42.107,345.274 43.367,333.69 37.061,326.651 C 36.254,326.111 35.346,326.005 34.438,325.901 C 27.711,320.696 17.425,320.862 10.518,326.61 C 9.871,327.404 9.319,327.773 8.672,328.566 C 5.89,332.575 4.371,337.169 5.209,341.64 C 5.466,342.549 5.724,343.458 5.884,344.791 C 7.424,350.27 13.148,353.747 18.909,355.034 L 18.909,355.034 z "
   i:knockout="Off" />

									<path
   style="fill:#33a02c"
   id="path29"
   d="M 18.474,358.001 C 18.834,358.054 19.223,358.136 19.634,358.222 C 21.155,358.542 23.048,358.939 25.28,358.268 C 26.276,357.968 27.11,357.718 28.356,357.513 L 28.55,357.482 L 28.738,357.425 C 29.82,357.097 31.167,356.691 32.648,355.696 L 33.024,355.443 L 33.309,355.089 C 33.302,355.098 33.298,355.103 33.298,355.103 C 33.393,355.008 33.776,354.796 34.055,354.642 C 34.434,354.433 34.907,354.171 35.409,353.831 L 35.45,353.804 L 35.49,353.775 C 40.238,350.336 43.312,345.079 43.925,339.353 C 44.504,333.938 42.818,328.579 39.297,324.649 L 39.045,324.368 L 38.731,324.158 C 37.319,323.213 35.854,323.045 34.784,322.921 L 36.277,323.529 C 28.377,317.416 16.48,317.749 8.602,324.304 L 8.379,324.49 L 8.195,324.715 C 7.982,324.977 7.772,325.18 7.507,325.437 C 7.184,325.749 6.783,326.139 6.35,326.669 L 6.276,326.76 L 6.209,326.856 C 2.696,331.92 1.331,337.223 2.262,342.194 L 2.287,342.327 L 2.324,342.458 C 2.566,343.313 2.775,344.052 2.907,345.151 L 2.935,345.381 L 2.997,345.604 C 4.975,352.645 12.176,356.604 18.255,357.962 L 18.363,357.986 L 18.474,358.001 z M 19.563,352.106 C 15.174,351.126 10.036,348.476 8.772,343.98 L 8.862,344.433 C 8.674,342.867 8.366,341.781 8.095,340.824 L 8.157,341.088 C 7.362,336.846 9.338,332.867 11.136,330.277 L 10.995,330.464 C 11.208,330.203 11.417,330 11.682,329.744 C 12.005,329.43 12.408,329.039 12.843,328.506 L 12.437,328.916 C 18.205,324.117 26.874,323.841 32.603,328.273 L 33.265,328.786 L 34.096,328.882 C 34.633,328.944 35.188,329.008 35.394,329.145 L 34.828,328.654 C 37.217,331.32 38.357,334.987 37.958,338.716 C 37.526,342.755 35.343,346.474 31.969,348.919 L 32.049,348.862 C 31.769,349.051 31.469,349.217 31.152,349.393 C 30.384,349.817 29.428,350.345 28.64,351.323 L 29.301,350.717 C 28.568,351.21 27.877,351.419 27.002,351.683 L 27.384,351.595 C 25.754,351.863 24.6,352.208 23.582,352.515 C 22.819,352.744 22.091,352.609 20.866,352.353 C 20.385,352.251 19.887,352.147 19.345,352.068 L 19.563,352.106 z "
   i:knockout="Off" />

								</g>

							</g>

							<g
   id="g31"
   i:knockout="Off">
								<g
   id="g33"
   i:knockout="Off">
									<path
   style="fill:#ffffff"
   id="path35"
   d="M 18.909,355.034 C 20.712,355.299 22.414,355.997 24.416,355.395 C 25.416,355.094 26.417,354.791 27.869,354.553 C 28.87,354.25 29.872,353.946 30.973,353.205 C 31.624,352.398 32.626,352.091 33.728,351.346 C 42.107,345.274 43.367,333.69 37.061,326.651 C 36.254,326.111 35.346,326.005 34.438,325.901 C 27.711,320.696 17.425,320.862 10.518,326.61 C 9.871,327.404 9.319,327.773 8.672,328.566 C 5.89,332.575 4.371,337.169 5.209,341.64 C 5.466,342.549 5.724,343.458 5.884,344.791 C 7.424,350.27 13.148,353.747 18.909,355.034 L 18.909,355.034 z "
   i:knockout="Off" />

								</g>

							</g>

							<g
   id="g37"
   i:knockout="Off">
								<g
   id="g39"
   i:knockout="Off">
									<path
   id="path41"
   d="M 13.973,347.116 C 14.354,347.172 14.714,347.319 15.137,347.191 C 15.349,347.129 15.56,347.064 15.867,347.014 C 16.078,346.95 16.29,346.886 16.523,346.73 C 16.661,346.558 16.873,346.494 17.106,346.335 C 18.877,345.052 19.143,342.605 17.811,341.116 C 17.64,341.003 17.448,340.979 17.256,340.958 C 15.834,339.858 13.661,339.893 12.2,341.108 C 12.063,341.276 11.947,341.353 11.81,341.521 C 11.222,342.368 10.901,343.338 11.078,344.284 C 11.133,344.475 11.187,344.669 11.221,344.95 C 11.546,346.109 12.756,346.843 13.973,347.116 L 13.973,347.116 z "
   i:knockout="Off" />

								</g>

							</g>

						</g>

						<g
   id="g43">
							<g
   id="g45"
   i:knockout="Off">
								<g
   id="g47"
   i:knockout="Off">
									<path
   style="fill:#33a02c"
   id="path49"
   d="M 82.441,355.034 C 80.638,355.299 78.936,355.997 76.934,355.395 C 75.934,355.094 74.933,354.791 73.481,354.553 C 72.48,354.25 71.478,353.946 70.377,353.205 C 69.726,352.398 68.724,352.091 67.622,351.346 C 59.243,345.274 57.983,333.69 64.289,326.651 C 65.096,326.111 66.004,326.005 66.912,325.901 C 73.639,320.696 83.925,320.862 90.832,326.61 C 91.479,327.404 92.031,327.773 92.678,328.566 C 95.46,332.575 96.979,337.169 96.141,341.64 C 95.884,342.549 95.626,343.458 95.466,344.791 C 93.926,350.27 88.202,353.747 82.441,355.034 L 82.441,355.034 z "
   i:knockout="Off" />

									<path
   style="fill:#33a02c"
   id="path51"
   d="M 82.005,352.066 C 81.463,352.145 80.966,352.25 80.484,352.351 C 79.259,352.607 78.53,352.742 77.796,352.522 C 76.749,352.207 75.595,351.861 73.965,351.593 L 74.347,351.681 C 73.472,351.417 72.781,351.208 72.048,350.715 L 72.71,351.321 C 71.921,350.343 70.965,349.815 70.197,349.391 C 69.88,349.215 69.581,349.049 69.301,348.86 L 69.381,348.917 C 66.007,346.472 63.824,342.753 63.392,338.714 C 62.993,334.985 64.134,331.318 66.522,328.652 L 65.956,329.143 C 66.161,329.006 66.716,328.942 67.253,328.88 L 68.085,328.784 L 68.747,328.271 C 74.476,323.838 83.145,324.115 88.913,328.914 L 88.507,328.504 C 88.942,329.037 89.344,329.428 89.667,329.742 C 89.932,329.998 90.141,330.201 90.354,330.462 L 90.213,330.275 C 92.011,332.865 93.987,336.843 93.192,341.086 L 93.254,340.822 C 92.983,341.779 92.676,342.865 92.487,344.431 L 92.577,343.978 C 91.314,348.474 86.175,351.124 81.787,352.104 L 82.005,352.066 z M 83.095,357.961 C 89.175,356.603 96.376,352.644 98.354,345.603 L 98.416,345.38 L 98.444,345.15 C 98.576,344.05 98.785,343.312 99.027,342.457 L 99.064,342.326 L 99.089,342.193 C 100.02,337.222 98.655,331.92 95.142,326.855 L 95.075,326.759 L 95.001,326.668 C 94.568,326.138 94.167,325.748 93.844,325.436 C 93.578,325.179 93.369,324.976 93.156,324.714 L 92.973,324.489 L 92.75,324.303 C 84.873,317.747 72.975,317.414 65.075,323.528 L 66.568,322.92 C 65.498,323.044 64.033,323.212 62.62,324.157 L 62.306,324.367 L 62.054,324.648 C 58.534,328.578 56.847,333.937 57.427,339.352 C 58.039,345.078 61.114,350.334 65.861,353.774 L 65.901,353.803 L 65.941,353.83 C 66.444,354.17 66.917,354.432 67.296,354.641 C 67.576,354.795 67.959,355.007 68.053,355.102 C 68.053,355.102 68.048,355.097 68.041,355.088 L 68.326,355.442 L 68.702,355.695 C 70.183,356.69 71.53,357.096 72.612,357.424 L 72.8,357.481 L 72.994,357.512 C 74.241,357.717 75.075,357.967 76.04,358.258 C 78.302,358.938 80.195,358.541 81.716,358.221 C 82.127,358.135 82.516,358.053 82.876,358 L 82.985,357.984 L 83.095,357.961 z "
   i:knockout="Off" />

								</g>

							</g>

							<g
   id="g53"
   i:knockout="Off">
								<g
   id="g55"
   i:knockout="Off">
									<path
   style="fill:#ffffff"
   id="path57"
   d="M 82.441,355.034 C 80.638,355.299 78.936,355.997 76.934,355.395 C 75.934,355.094 74.933,354.791 73.481,354.553 C 72.48,354.25 71.478,353.946 70.377,353.205 C 69.726,352.398 68.724,352.091 67.622,351.346 C 59.243,345.274 57.983,333.69 64.289,326.651 C 65.096,326.111 66.004,326.005 66.912,325.901 C 73.639,320.696 83.925,320.862 90.832,326.61 C 91.479,327.404 92.031,327.773 92.678,328.566 C 95.46,332.575 96.979,337.169 96.141,341.64 C 95.884,342.549 95.626,343.458 95.466,344.791 C 93.926,350.27 88.202,353.747 82.441,355.034 L 82.441,355.034 z "
   i:knockout="Off" />

								</g>

							</g>

							<g
   id="g59"
   i:knockout="Off">
								<g
   id="g61"
   i:knockout="Off">
									<path
   id="path63"
   d="M 85.21,334.282 C 84.829,334.338 84.469,334.485 84.046,334.357 C 83.834,334.295 83.623,334.23 83.316,334.18 C 83.105,334.116 82.893,334.052 82.66,333.896 C 82.522,333.724 82.31,333.66 82.077,333.501 C 80.306,332.218 80.04,329.771 81.372,328.282 C 81.543,328.169 81.735,328.145 81.927,328.124 C 83.349,327.024 85.522,327.059 86.983,328.274 C 87.12,328.442 87.236,328.519 87.373,328.687 C 87.961,329.534 88.282,330.504 88.105,331.45 C 88.05,331.641 87.996,331.835 87.962,332.116 C 87.638,333.275 86.428,334.009 85.21,334.282 L 85.21,334.282 z "
   i:knockout="Off" />

								</g>

							</g>

						</g>

						<g
   id="g65"
   i:knockout="Off">
							<g
   id="g67"
   i:knockout="Off">
								<path
   style="fill:#24711f"
   id="path69"
   d="M 40.234,335.335 C 41.783,331.159 42.138,342.695 39.089,346.702 C 38.249,347.734 36.229,350.241 35.839,351.202 C 34.998,352.229 32.961,352.702 32.09,353.282 C 30.769,353.93 29.899,354.509 29.028,355.085 C 27.286,356.24 25.454,356.064 23.652,356.332 L 23.652,356.332 C 17.764,356.765 11.28,355.091 8.222,350.292 C 7.683,349.062 7.174,348.267 6.665,347.471 C 6.666,347.471 32.66,355.754 40.234,335.335 z "
   i:knockout="Off" />

							</g>

						</g>

						<g
   id="g71"
   i:knockout="Off">
							<g
   id="g73"
   i:knockout="Off">
								<path
   style="fill:#24711f"
   id="path75"
   d="M 94.614,345.208 C 98.105,342.442 92.422,352.488 87.737,354.331 C 86.484,354.777 83.456,355.872 82.624,356.491 C 81.372,356.932 79.386,356.279 78.34,356.324 C 76.874,356.192 75.83,356.235 74.787,356.275 C 72.698,356.358 71.224,355.256 69.544,354.551 L 69.544,354.551 C 64.287,351.865 59.612,347.07 59.489,341.381 C 59.667,340.049 59.644,339.106 59.622,338.161 C 59.622,338.162 77.543,358.732 94.614,345.208 z "
   i:knockout="Off" />

							</g>

						</g>

						<g
   style="opacity:0.63999999"
   id="g77"
   i:knockout="Off">
							<ellipse
   style="fill:#ffffff"
   sodipodi:ry="4.6669998"
   sodipodi:rx="9.9169998"
   sodipodi:cy="314.564"
   sodipodi:cx="50.022999"
   id="ellipse79"
   ry="4.6669998"
   rx="9.9169998"
   cy="314.564"
   cx="50.022999"
   i:knockout="Off" />
 
						</g>

					</g>
  </g>
</svg>
