<?xml version="1.0" encoding="UTF-8" standalone="no"?>
<!-- Created with Inkscape (http://www.inkscape.org/) -->
<svg
   xmlns:dc="http://purl.org/dc/elements/1.1/"
   xmlns:cc="http://web.resource.org/cc/"
   xmlns:rdf="http://www.w3.org/1999/02/22-rdf-syntax-ns#"
   xmlns:svg="http://www.w3.org/2000/svg"
   xmlns="http://www.w3.org/2000/svg"
   xmlns:sodipodi="http://sodipodi.sourceforge.net/DTD/sodipodi-0.dtd"
   xmlns:inkscape="http://www.inkscape.org/namespaces/inkscape"
   width="32px"
   height="32px"
   id="svg13925"
   sodipodi:version="0.32"
   inkscape:version="0.45.1"
   sodipodi:docbase="/home/jeff/tmp"
   sodipodi:docname="ceferino.svg"
   inkscape:output_extension="org.inkscape.output.svg.inkscape"
   inkscape:export-filename="/home/jeff/tmp/ceferino.png"
   inkscape:export-xdpi="90"
   inkscape:export-ydpi="90">
  <defs
     id="defs13927" />
  <sodipodi:namedview
     id="base"
     pagecolor="#ffffff"
     bordercolor="#666666"
     borderopacity="1.0"
     inkscape:pageopacity="0.0"
     inkscape:pageshadow="2"
     inkscape:zoom="11.84375"
     inkscape:cx="16"
     inkscape:cy="17.776352"
     inkscape:current-layer="layer1"
     showgrid="true"
     inkscape:grid-bbox="true"
     inkscape:document-units="px"
     inkscape:window-width="790"
     inkscape:window-height="603"
     inkscape:window-x="161"
     inkscape:window-y="61" />
  <metadata
     id="metadata13930">
    <rdf:RDF>
      <cc:Work
         rdf:about="">
        <dc:format>image/svg+xml</dc:format>
        <dc:type
           rdf:resource="http://purl.org/dc/dcmitype/StillImage" />
      </cc:Work>
    </rdf:RDF>
  </metadata>
  <g
     id="layer1"
     inkscape:label="Layer 1"
     inkscape:groupmode="layer">
    <g
       id="g13996"
       transform="matrix(0.9814063,0,0,0.9095316,-1.5069445,1.0012015)">
      <path
         style="fill:#d3b38f"
         d="M 18.756754,19.25 C 20.05188,18.0125 21.648934,17.013684 22.305764,17.030409 L 23.5,17.060817 L 21.5,18.170392 C 20.4,18.780658 18.802946,19.779474 17.950991,20.389983 C 17.099036,21.000493 17.461629,20.4875 18.756754,19.25 z M 13.731213,19.080159 L 13.111899,16.711899 L 14.16845,17.76845 L 15.225,18.825 L 14.787763,20.13671 L 14.350527,21.448419 L 13.731213,19.080159 z M 25.256611,19.916202 L 27.013221,18.893221 L 25.775498,16.69661 C 25.09475,15.488475 24.47878,13.724264 24.406677,12.776142 L 24.275579,11.052283 L 25.154102,11.59524 L 26.032624,12.138197 L 25.411543,13.143126 L 24.790463,14.148055 L 27,16.5 L 29.209537,18.851945 L 28.545752,19.925972 L 27.881966,21 L 25.690983,20.969591 L 23.5,20.939183 L 25.256611,19.916202 z M 7.981001,16.477108 L 6.717113,14.954216 L 8.358556,15.584097 C 9.26135,15.930531 10,16.615833 10,17.106989 C 10,18.392948 9.421127,18.212353 7.981001,16.477108 z M 17.675343,16.342009 L 17.017352,15.684019 L 18.131121,14.342009 C 18.743693,13.603904 19.752289,13.013684 20.372445,13.030409 L 21.5,13.060817 L 19.630023,14.147242 L 17.760045,15.233666 L 19.130023,16.10152 L 20.5,16.969374 L 19.416667,16.984687 C 18.820833,16.993109 18.037238,16.703904 17.675343,16.342009 z "
         id="path14010" />
      <path
         style="fill:#b68c68"
         d="M 17.979944,27.475834 C 16.274734,25.421181 17.189778,24.749088 20.104816,25.915131 L 22.5,26.873227 L 21.190983,26.936614 L 19.881966,27 L 20.5,28 L 21.118034,29 L 20.181462,29 C 19.666347,29 18.675664,28.314125 17.979944,27.475834 z M 12.826958,25.923037 L 11.177014,24.999682 L 11.435597,23.249841 L 11.69418,21.5 L 8.84709,19.764698 L 6,18.029397 L 6,16.359711 L 6,14.690025 L 8.233655,16.595012 C 9.462165,17.642756 10.997261,19.170037 11.644979,19.988972 L 12.822649,21.477943 L 12.219366,22.488972 L 11.616083,23.5 L 13.308042,22.127555 C 15.399229,20.431273 15.466584,18.632119 13.5,17 C 12.675,16.315311 12,15.349073 12,14.852804 L 12,13.950498 L 14.583916,12.968095 L 17.167832,11.985692 L 18.132474,12.581874 L 19.097117,13.178055 L 18.057234,14.431037 L 17.017352,15.684019 L 17.675343,16.342009 C 18.037238,16.703904 18.820833,16.993109 19.416667,16.984687 L 20.5,16.969374 L 19.148688,16.113056 L 17.797376,15.256738 L 20.957271,14.792964 L 24.117165,14.329189 L 25.51688,16.327562 L 26.916595,18.325935 L 26.39928,19.162968 C 26.114758,19.623335 25.233524,20 24.440983,20 L 23,20 L 23.25,18.875 L 23.5,17.75 L 22.419129,17.348043 L 21.338258,16.946086 L 18.669129,19.045623 L 16,21.14516 L 15.984687,22.82258 C 15.976265,23.745161 15.633568,25.027938 15.223138,25.673196 L 14.476901,26.846392 L 12.826958,25.923037 z M 20,12 L 18.5,11.030626 L 19.668213,11.015313 C 20.310729,11.006891 21.49016,10.749138 22.28917,10.442529 L 23.741915,9.885059 L 24.339573,11.442529 L 24.93723,13 L 23.218615,12.984687 C 22.273377,12.976265 20.825,12.533156 20,12 z "
         id="path14008" />
      <path
         style="fill:#506193"
         d="M 12.111904,32.919005 C 7.087412,31.932148 6.526714,31.574809 7.508959,29.985504 L 8.218189,28.837946 L 10.859094,29.554084 C 12.311593,29.94796 14.4,30.376367 15.5,30.506099 L 17.5,30.741976 L 17.209106,31.993669 L 16.918213,33.245362 L 18.459106,32.654066 L 20,32.06277 L 20,33.031385 L 20,34 L 18.25,33.890434 C 17.2875,33.830173 14.525357,33.39303 12.111904,32.919005 z "
         id="path14006" />
      <path
         style="fill:#986544"
         d="M 12.869772,30.33374 L 11.239543,29.899483 L 10.58685,25.817766 L 9.934157,21.736048 L 7.467079,19.795444 L 5,17.85484 L 5,16.486437 C 5,15.733815 5.446436,14.842121 5.99208,14.504895 L 6.98416,13.891755 L 8.74208,14.993627 L 10.5,16.095499 L 8.25,15.480362 L 6,14.865225 L 6,16.409559 L 6,17.953894 L 8.5,19.591957 L 11,21.23002 L 11,22.926951 L 11,24.623883 L 14.027808,26.862438 L 17.055616,29.100994 L 16.468791,30.050497 C 15.859836,31.035808 15.586217,31.057342 12.869772,30.33374 z M 20,27.616631 C 20,27.405779 20.900621,26.997745 22.00138,26.70989 L 24.00276,26.186518 L 23.442363,27.093259 C 22.904112,27.964167 20,28.405705 20,27.616631 z M 16,23.027126 C 16,21.783281 20.993218,18 22.634859,18 L 24,18 L 23.75,19.19061 L 23.5,20.38122 L 25.35622,20.78439 L 27.21244,21.18756 L 28.292976,20.107024 L 29.373512,19.026488 L 26.96496,16.263244 L 24.556407,13.5 L 27.448191,16.192715 L 30.339975,18.885429 L 29.047543,20.442715 L 27.755111,22 L 25.948984,22 L 24.142857,22 L 22.584416,20.441558 L 21.025974,18.883117 L 18.512987,21.396104 L 16,23.909091 L 16,23.027126 z M 13.157895,20 L 13.157895,17.5 L 13.662281,18.75 L 14.166667,20 L 13.662281,21.25 L 13.157895,22.5 L 13.157895,20 z M 19.75,14.337719 L 21,13.833333 L 22.25,14.337719 L 23.5,14.842105 L 21,14.842105 L 18.5,14.842105 L 19.75,14.337719 z "
         id="path14004" />
      <path
         style="fill:#974a00"
         d="M 25.5,8.918855 L 22.5,8.009615 L 21.300928,8.45388 L 20.101855,8.898145 L 20.657916,7.449072 L 21.213978,6 L 22.996205,6 L 24.778432,6 L 27.139216,7.966731 C 29.777211,10.164402 29.719752,10.197777 25.5,8.918855 z M 18.584201,3.358827 L 18.118882,2.146226 L 19.635656,0.887415 L 21.152431,-0.371396 L 22.060903,1.064302 C 22.560562,1.853936 22.976265,2.966071 22.984687,3.535714 L 23,4.571429 L 21.02476,4.571429 L 19.049519,4.571429 L 18.584201,3.358827 z "
         id="path14002" />
      <path
         style="fill:#6b3703"
         d="M 27,12.978561 C 27,12.440353 27.033375,11.684779 27.074167,11.299508 C 27.114958,10.914238 26.236166,10.261584 25.121294,9.849166 L 23.094254,9.099315 L 17.15304,11.105695 L 11.211827,13.112074 L 7.923933,12.260095 L 4.636039,11.408116 L 4.28379,10.351371 L 3.931542,9.294626 L 11.219924,8.047909 L 18.508305,6.801191 L 24.004153,8.41567 C 27.026869,9.303634 30.07527,10.395316 30.778378,10.84163 L 32.056755,11.653111 L 29.528378,12.805117 L 27,13.957122 L 27,12.978561 z M 29.729167,11.395833 L 29.125,10.791667 L 27.8125,11.316886 L 26.5,11.842105 L 28.416667,11.921053 L 30.333333,12 L 29.729167,11.395833 z M 10.542466,4.795289 C 10.93076,3.53288 11.317894,2.412159 11.402764,2.304797 C 11.487633,2.197436 13.511117,1.67055 15.899394,1.13394 L 20.241715,0.158285 L 19.199003,1.200997 L 18.15629,2.24371 L 18.660904,3.558713 L 19.165518,4.873715 L 20.832759,4.289679 L 22.5,3.705643 L 21.5,4.728594 L 20.5,5.751545 L 15.168238,6.421061 L 9.836476,7.090578 L 10.542466,4.795289 z "
         id="path14000" />
      <path
         style="fill:#180e07"
         d="M 21.47486,32.959323 L 20.831686,31.918645 L 18.665843,32.58355 L 16.5,33.248455 L 17.223649,32.483912 L 17.947299,31.719368 L 16.324928,28.972914 L 14.702558,26.22646 L 16.919373,23.11323 C 19.450443,19.55867 19.620782,19.51663 24.011626,21.362841 L 27.252871,22.725683 L 26.0696,23.456985 L 24.886329,24.188286 L 22.604852,23.615672 L 20.323374,23.043058 L 18.449434,24.413316 L 16.575494,25.783575 L 17.910192,27.391787 C 18.644275,28.276304 19.839273,29 20.565741,29 L 21.886592,29 L 23.300737,26.981026 L 24.714882,24.962051 L 24.607441,27.895395 L 24.5,30.828739 L 23.5,30.664369 L 22.5,30.5 L 22.638889,32.25 C 22.796731,34.238809 22.410925,34.473908 21.47486,32.959323 z M 7.515313,23.975223 L 8.309017,22.690983 L 7.244751,23.348736 L 6.180484,24.006489 L 4.449943,23.342418 L 2.719402,22.678347 L 4.382996,21.461897 L 6.046591,20.245447 L 3.773296,19.516726 L 1.5,18.788006 L 3.221866,18.326097 L 4.943733,17.864188 L 7.457892,19.682094 L 9.972051,21.5 L 9.736025,22.917134 L 9.5,24.334267 L 8.110804,24.796866 L 6.721609,25.259464 L 7.515313,23.975223 z M 11.313208,22.227351 C 11.34012,21.277308 11.022652,19.375 10.607722,18 L 9.853305,15.5 L 5.77591,12.652181 L 1.698515,9.804362 L 3.099258,8.917494 C 3.869666,8.429716 5.476745,8.023735 6.670545,8.015313 L 8.841089,8 L 9.513171,4.940033 L 10.185253,1.880065 L 12.342626,1.079992 C 13.529182,0.639951 16.199688,-0.030741 18.277085,-0.410435 L 22.054169,-1.100788 L 23.323995,1.919236 L 24.59382,4.939261 L 29.337114,8.634728 L 34.080409,12.330195 L 30.30368,13.628573 L 26.526951,14.926951 L 25.513475,13.879901 L 24.5,12.832851 L 26,13.034908 C 26.825,13.14604 28.175,13.15194 29,13.048021 L 30.5,12.859076 L 26.817913,11.505398 L 23.135826,10.15172 L 20.826865,10.755527 L 18.517905,11.359334 L 21.508952,12.634563 L 24.5,13.909792 L 23.3151,13.954896 C 22.663404,13.979703 20.975904,13.561138 19.5651,13.024751 L 17,12.049502 L 14.668073,12.936099 L 12.336146,13.822696 L 12.59442,18.397851 L 12.852694,22.973006 L 12.058485,23.463854 L 11.264277,23.954702 L 11.313208,22.227351 z M 17.357085,11.04917 L 23.027271,9.09834 L 27.139362,10.54917 C 32.754962,12.530469 32.827128,12.438769 28.412965,8.930833 L 24.55092,5.861666 L 21.52546,6.362187 C 19.861457,6.637473 15.224781,7.41794 11.221735,8.096558 L 3.943469,9.330408 L 4.295874,10.387621 L 4.648278,11.444834 L 7.074139,12.122737 C 10.842466,13.17579 11.321242,13.125805 17.357085,11.04917 z M 21.25,5.348553 L 23,4.865225 L 22.984687,3.682612 C 22.976265,3.032176 22.604742,1.92542 22.159079,1.223156 L 21.348785,-0.053689 L 16.174392,1.05602 L 11,2.165728 L 11,3.001077 C 11,3.460518 10.712689,4.585146 10.36153,5.50025 L 9.723061,7.164075 L 14.61153,6.497979 C 17.300189,6.131625 20.2875,5.614384 21.25,5.348553 z M 3.603006,15.166667 L 3.087977,14.333333 L 4.5,14.333333 L 5.912023,14.333333 L 5.396994,15.166667 C 5.113729,15.625 4.710081,16 4.5,16 C 4.289919,16 3.886271,15.625 3.603006,15.166667 z "
         id="path13998" />
    </g>
  </g>
</svg>
