<?xml version="1.0" encoding="UTF-8" standalone="no"?>
<!-- Created with Inkscape (http://www.inkscape.org/) -->
<svg
   xmlns:dc="http://purl.org/dc/elements/1.1/"
   xmlns:cc="http://creativecommons.org/ns#"
   xmlns:rdf="http://www.w3.org/1999/02/22-rdf-syntax-ns#"
   xmlns:svg="http://www.w3.org/2000/svg"
   xmlns="http://www.w3.org/2000/svg"
   xmlns:sodipodi="http://sodipodi.sourceforge.net/DTD/sodipodi-0.dtd"
   xmlns:inkscape="http://www.inkscape.org/namespaces/inkscape"
   width="155"
   height="155"
   id="svg6776"
   sodipodi:version="0.32"
   inkscape:version="0.46"
   version="1.0"
   sodipodi:docname="gallery_logo.svg"
   inkscape:output_extension="org.inkscape.output.svg.inkscape">
  <defs
     id="defs6778">
    <clipPath
       id="clipPath3773"
       clipPathUnits="userSpaceOnUse">
      <path
         id="path3775"
         d="M 295.007,51.47 L 235.545,17.127 L 214.483,53.616 L 261.685,80.878 L 258.744,71.379 L 266.091,58.689 L 278.8,66.031 L 282.472,59.673 L 288.325,63.052 L 295.007,51.47 z" />
    </clipPath>
    <clipPath
       id="clipPath3753"
       clipPathUnits="userSpaceOnUse">
      <path
         id="path3755"
         d="M 256.414,47.05 L 242.561,34.127 C 239.671,39.074 235.648,43.624 231.273,49.277 C 225.59,56.598 221.591,61.966 216.238,67.186 L 240.731,90.036 L 256.414,73.214 L 256.414,47.05 z" />
    </clipPath>
    <clipPath
       id="clipPath3745"
       clipPathUnits="userSpaceOnUse">
      <path
         id="path3747"
         d="M 206.246,51.589 L 258.551,81.575 L 263.515,71.171 L 256.394,65.778 L 263.901,53.068 L 274.969,59.044 L 274.969,56.823 L 294.409,56.823 L 300.959,45.426 L 232.4,5.082 L 206.246,51.589 z" />
    </clipPath>
    <clipPath
       id="clipPath3707"
       clipPathUnits="userSpaceOnUse">
      <path
         id="path3709"
         d="M 256.414,47.05 L 242.561,34.127 C 239.671,39.074 235.648,43.624 231.273,49.277 C 225.59,56.598 221.591,61.966 216.238,67.186 L 240.731,90.036 L 256.414,73.214 L 256.414,47.05 z" />
    </clipPath>
    <clipPath
       id="clipPath3699"
       clipPathUnits="userSpaceOnUse">
      <path
         id="path3701"
         d="M 206.246,51.589 L 258.551,81.575 L 263.515,71.171 L 256.394,65.778 L 263.901,53.068 L 274.969,59.044 L 274.969,56.823 L 294.409,56.823 L 300.959,45.426 L 232.4,5.082 L 206.246,51.589 z" />
    </clipPath>
    <clipPath
       id="clipPath3689"
       clipPathUnits="userSpaceOnUse">
      <path
         id="path3691"
         d="M 256.414,47.05 L 242.561,34.127 C 239.671,39.074 235.648,43.624 231.273,49.277 C 225.59,56.598 221.591,61.966 216.238,67.186 L 240.731,90.036 L 256.414,73.214 L 256.414,47.05 z" />
    </clipPath>
    <clipPath
       id="clipPath3681"
       clipPathUnits="userSpaceOnUse">
      <path
         id="path3683"
         d="M 206.246,51.589 L 258.551,81.575 L 263.515,71.171 L 256.394,65.778 L 263.901,53.068 L 274.969,59.044 L 274.969,56.823 L 294.409,56.823 L 300.959,45.426 L 232.4,5.082 L 206.246,51.589 z" />
    </clipPath>
    <clipPath
       id="clipPath3671"
       clipPathUnits="userSpaceOnUse">
      <path
         id="path3673"
         d="M 256.414,47.05 L 219.239,12.372 L 190.513,43.19 L 240.731,90.036 L 256.414,73.214 L 256.414,47.05 z" />
    </clipPath>
    <clipPath
       id="clipPath3663"
       clipPathUnits="userSpaceOnUse">
      <path
         id="path3665"
         d="M 206.246,51.589 L 258.551,81.575 L 263.515,71.171 L 256.394,65.778 L 263.901,53.068 L 274.969,59.044 L 274.969,56.823 L 294.409,56.823 L 300.959,45.426 L 232.4,5.082 L 206.246,51.589 z" />
    </clipPath>
    <clipPath
       id="clipPath3585"
       clipPathUnits="userSpaceOnUse">
      <path
         id="path3587"
         d="M 256.414,47.05 L 219.239,12.372 L 190.513,43.19 L 240.731,90.036 L 256.414,73.214 L 256.414,47.05 z" />
    </clipPath>
    <clipPath
       id="clipPath3577"
       clipPathUnits="userSpaceOnUse">
      <path
         id="path3579"
         d="M 206.246,51.589 L 258.551,81.575 L 263.515,71.171 L 256.394,65.778 L 263.901,53.068 L 274.969,59.044 L 274.969,56.823 L 294.409,56.823 L 300.959,45.426 L 232.4,5.082 L 206.246,51.589 z" />
    </clipPath>
    <clipPath
       id="clipPath3533"
       clipPathUnits="userSpaceOnUse">
      <path
         id="path3535"
         d="M 256.414,47.05 L 242.561,34.127 C 239.671,39.074 235.648,43.624 231.273,49.277 C 225.59,56.598 221.591,61.966 216.238,67.186 L 240.731,90.036 L 256.414,73.214 L 256.414,47.05 z" />
    </clipPath>
    <clipPath
       id="clipPath3453"
       clipPathUnits="userSpaceOnUse">
      <path
         id="path3455"
         d="M 256.414,47.05 L 219.239,12.372 L 190.513,43.19 L 240.731,90.036 L 256.414,73.214 L 256.414,47.05 z" />
    </clipPath>
    <inkscape:perspective
       sodipodi:type="inkscape:persp3d"
       inkscape:vp_x="0 : 526.18109 : 1"
       inkscape:vp_y="0 : 1000 : 0"
       inkscape:vp_z="744.09448 : 526.18109 : 1"
       inkscape:persp3d-origin="372.04724 : 350.78739 : 1"
       id="perspective6784" />
  </defs>
  <sodipodi:namedview
     id="base"
     pagecolor="#ffffff"
     bordercolor="#666666"
     borderopacity="1.0"
     inkscape:pageopacity="0.0"
     inkscape:pageshadow="2"
     inkscape:zoom="1.979899"
     inkscape:cx="115.47437"
     inkscape:cy="124.67594"
     inkscape:document-units="px"
     inkscape:current-layer="layer1"
     showgrid="false"
     inkscape:window-width="645"
     inkscape:window-height="717"
     inkscape:window-x="78"
     inkscape:window-y="46" />
  <metadata
     id="metadata6781">
    <rdf:RDF>
      <cc:Work
         rdf:about="">
        <dc:format>image/svg+xml</dc:format>
        <dc:type
           rdf:resource="http://purl.org/dc/dcmitype/StillImage" />
      </cc:Work>
    </rdf:RDF>
  </metadata>
  <g
     inkscape:label="Livello 1"
     inkscape:groupmode="layer"
     id="layer1"
     transform="translate(-384.93313,-855.73522)">
    <g
       id="g7001"
       transform="translate(2.5050763,16)">
      <path
         id="path3437"
         style="fill:#4f4c4c;fill-opacity:1;fill-rule:nonzero;stroke:none"
         d="M 414.51875,915.93147 L 479.89995,878.44897 L 486.10495,891.45397 L 477.20375,898.19522 L 486.58745,914.08272 L 500.42245,906.61272 L 500.42245,909.38897 L 524.72245,909.38897 L 532.90995,923.63522 L 447.21125,974.06522 L 414.51875,915.93147 z" />
      <path
         id="path3439"
         style="fill:#bfbdbc;fill-opacity:1;fill-rule:nonzero;stroke:none"
         d="M 385.16375,931.86772 L 457.96495,863.96022 L 482.02375,889.76897 L 478.88495,889.76897 L 478.88495,919.61772 L 495.59745,919.61772 L 430.42125,980.41772 L 385.16375,931.86772 z" />
      <path
         id="path3441"
         style="fill:#e8f1fb;fill-opacity:1;fill-rule:nonzero;stroke:none"
         d="M 385.16375,926.09147 L 457.96495,858.18522 L 477.22875,878.84772 L 477.22875,930.98022 L 430.42125,974.64147 L 385.16375,926.09147 z" />
      <path
         id="path3443"
         style="fill:none;stroke:#96b3e2;stroke-width:0.46124998;stroke-linecap:butt;stroke-linejoin:miter;stroke-miterlimit:3.86400008;stroke-dasharray:none;stroke-opacity:1"
         d="M 385.16375,926.09147 L 457.96495,858.18522 L 477.22875,878.84772 L 477.22875,930.98022 L 430.42125,974.64147 L 385.16375,926.09147 z" />
      <path
         id="path3445"
         style="fill:#b3d1f0;fill-opacity:1;fill-rule:nonzero;stroke:none"
         d="M 457.66495,866.73022 L 477.22875,887.71272 L 477.22875,922.71522 L 430.71995,966.09772 L 393.70625,926.39272 L 457.66495,866.73022 z" />
      <path
         id="path3447"
         style="fill:none;stroke:#6c99d7;stroke-width:0.3125;stroke-linecap:butt;stroke-linejoin:miter;stroke-miterlimit:3.86400008;stroke-dasharray:none;stroke-opacity:1"
         d="M 457.66495,866.73022 L 477.22875,887.71272 L 477.22875,922.71522 L 430.71995,966.09772 L 393.70625,926.39272 L 457.66495,866.73022 z" />
      <g
         transform="matrix(1.25,0,0,-1.25,156.71122,980.41772)"
         id="g3449">
        <g
           clip-path="url(#clipPath3453)"
           id="g3451">
          <path
             id="path3457"
             style="fill:#6c99d7;fill-opacity:1;fill-rule:nonzero;stroke:none"
             d="M 267.595,24.748 L 198.519,8.796 L 198.847,7.372 L 267.924,23.325 L 267.595,24.748 z" />
          <path
             id="path3459"
             style="fill:#6e9ad8;fill-opacity:1;fill-rule:nonzero;stroke:none"
             d="M 267.245,26.266 L 198.169,10.313 L 198.498,8.888 L 267.574,24.841 L 267.245,26.266 z" />
          <path
             id="path3461"
             style="fill:#709cd9;fill-opacity:1;fill-rule:nonzero;stroke:none"
             d="M 266.896,27.781 L 197.818,11.829 L 198.147,10.405 L 267.224,26.358 L 266.896,27.781 z" />
          <path
             id="path3463"
             style="fill:#729dd9;fill-opacity:1;fill-rule:nonzero;stroke:none"
             d="M 266.545,29.299 L 197.469,13.347 L 197.798,11.921 L 266.873,27.874 L 266.545,29.299 z" />
          <path
             id="path3465"
             style="fill:#749fda;fill-opacity:1;fill-rule:nonzero;stroke:none"
             d="M 266.195,30.817 L 197.118,14.864 L 197.447,13.438 L 266.523,29.391 L 266.195,30.817 z" />
          <path
             id="path3467"
             style="fill:#76a0db;fill-opacity:1;fill-rule:nonzero;stroke:none"
             d="M 265.844,32.334 L 196.768,16.38 L 197.098,14.954 L 266.173,30.908 L 265.844,32.334 z" />
          <path
             id="path3469"
             style="fill:#78a2db;fill-opacity:1;fill-rule:nonzero;stroke:none"
             d="M 265.493,33.851 L 196.418,17.896 L 196.747,16.475 L 265.823,32.428 L 265.493,33.851 z" />
          <path
             id="path3471"
             style="fill:#7aa3dc;fill-opacity:1;fill-rule:nonzero;stroke:none"
             d="M 265.145,35.368 L 196.068,19.414 L 196.397,17.99 L 265.473,33.944 L 265.145,35.368 z" />
          <path
             id="path3473"
             style="fill:#7ca5dd;fill-opacity:1;fill-rule:nonzero;stroke:none"
             d="M 264.794,36.884 L 195.718,20.93 L 196.047,19.508 L 265.123,35.461 L 264.794,36.884 z" />
          <path
             id="path3475"
             style="fill:#7ea6dd;fill-opacity:1;fill-rule:nonzero;stroke:none"
             d="M 264.444,38.402 L 195.368,22.45 L 195.698,21.023 L 264.774,36.978 L 264.444,38.402 z" />
          <path
             id="path3477"
             style="fill:#80a8de;fill-opacity:1;fill-rule:nonzero;stroke:none"
             d="M 264.094,39.92 L 195.018,23.967 L 195.347,22.54 L 264.423,38.493 L 264.094,39.92 z" />
          <path
             id="path3479"
             style="fill:#82a9df;fill-opacity:1;fill-rule:nonzero;stroke:none"
             d="M 263.743,41.436 L 194.669,25.483 L 194.997,24.06 L 264.073,40.009 L 263.743,41.436 z" />
          <path
             id="path3481"
             style="fill:#84abe0;fill-opacity:1;fill-rule:nonzero;stroke:none"
             d="M 263.394,42.953 L 194.318,26.999 L 194.646,25.575 L 263.722,41.528 L 263.394,42.953 z" />
          <path
             id="path3483"
             style="fill:#86ade0;fill-opacity:1;fill-rule:nonzero;stroke:none"
             d="M 263.044,44.469 L 193.968,28.515 L 194.297,27.093 L 263.372,43.045 L 263.044,44.469 z" />
          <path
             id="path3485"
             style="fill:#88aee1;fill-opacity:1;fill-rule:nonzero;stroke:none"
             d="M 262.693,45.986 L 193.617,30.034 L 193.946,28.608 L 263.023,44.563 L 262.693,45.986 z" />
          <path
             id="path3487"
             style="fill:#8ab0e2;fill-opacity:1;fill-rule:nonzero;stroke:none"
             d="M 262.343,47.505 L 193.267,31.551 L 193.597,30.125 L 262.673,46.078 L 262.343,47.505 z" />
          <path
             id="path3489"
             style="fill:#8cb1e2;fill-opacity:1;fill-rule:nonzero;stroke:none"
             d="M 261.993,49.022 L 192.917,33.068 L 193.246,31.642 L 262.322,47.596 L 261.993,49.022 z" />
          <path
             id="path3491"
             style="fill:#8eb3e3;fill-opacity:1;fill-rule:nonzero;stroke:none"
             d="M 261.644,50.538 L 192.567,34.584 L 192.896,33.162 L 261.972,49.114 L 261.644,50.538 z" />
          <path
             id="path3493"
             style="fill:#90b5e4;fill-opacity:1;fill-rule:nonzero;stroke:none"
             d="M 261.293,52.054 L 192.217,36.102 L 192.547,34.678 L 261.621,50.632 L 261.293,52.054 z" />
          <path
             id="path3495"
             style="fill:#93b6e5;fill-opacity:1;fill-rule:nonzero;stroke:none"
             d="M 260.943,53.57 L 191.867,37.617 L 192.196,36.194 L 261.273,52.147 L 260.943,53.57 z" />
          <path
             id="path3497"
             style="fill:#95b8e5;fill-opacity:1;fill-rule:nonzero;stroke:none"
             d="M 260.592,55.087 L 191.517,39.138 L 191.846,37.711 L 260.922,53.663 L 260.592,55.087 z" />
          <path
             id="path3499"
             style="fill:#97bae6;fill-opacity:1;fill-rule:nonzero;stroke:none"
             d="M 260.242,56.607 L 191.167,40.653 L 191.496,39.228 L 260.572,55.181 L 260.242,56.607 z" />
          <path
             id="path3501"
             style="fill:#99bbe7;fill-opacity:1;fill-rule:nonzero;stroke:none"
             d="M 259.894,58.124 L 190.816,42.169 L 191.146,40.745 L 260.222,56.697 L 259.894,58.124 z" />
          <path
             id="path3503"
             style="fill:#9bbde8;fill-opacity:1;fill-rule:nonzero;stroke:none"
             d="M 259.543,59.641 L 190.467,43.687 L 190.795,42.264 L 259.871,58.214 L 259.543,59.641 z" />
          <path
             id="path3505"
             style="fill:#9dbfe8;fill-opacity:1;fill-rule:nonzero;stroke:none"
             d="M 259.192,61.157 L 190.116,45.203 L 190.445,43.779 L 259.522,59.732 L 259.192,61.157 z" />
          <path
             id="path3507"
             style="fill:#9fc1e9;fill-opacity:1;fill-rule:nonzero;stroke:none"
             d="M 258.842,62.673 L 189.766,46.72 L 190.096,45.296 L 259.172,61.25 L 258.842,62.673 z" />
          <path
             id="path3509"
             style="fill:#a1c3ea;fill-opacity:1;fill-rule:nonzero;stroke:none"
             d="M 258.492,64.192 L 189.416,48.238 L 189.746,46.812 L 258.821,62.766 L 258.492,64.192 z" />
          <path
             id="path3511"
             style="fill:#a3c4eb;fill-opacity:1;fill-rule:nonzero;stroke:none"
             d="M 258.144,65.708 L 189.065,49.756 L 189.395,48.329 L 258.471,64.283 L 258.144,65.708 z" />
          <path
             id="path3513"
             style="fill:#a6c6eb;fill-opacity:1;fill-rule:nonzero;stroke:none"
             d="M 257.792,67.225 L 188.716,51.271 L 189.044,49.85 L 258.121,65.8 L 257.792,67.225 z" />
          <path
             id="path3515"
             style="fill:#a8c8ec;fill-opacity:1;fill-rule:nonzero;stroke:none"
             d="M 257.443,68.741 L 188.366,52.789 L 188.694,51.365 L 257.771,67.318 L 257.443,68.741 z" />
          <path
             id="path3517"
             style="fill:#aacaed;fill-opacity:1;fill-rule:nonzero;stroke:none"
             d="M 257.092,70.259 L 188.015,54.306 L 188.345,52.882 L 257.421,68.835 L 257.092,70.259 z" />
          <path
             id="path3519"
             style="fill:#accced;fill-opacity:1;fill-rule:nonzero;stroke:none"
             d="M 256.741,71.774 L 187.665,55.825 L 187.994,54.399 L 257.071,70.352 L 256.741,71.774 z" />
          <path
             id="path3521"
             style="fill:#aecdee;fill-opacity:1;fill-rule:nonzero;stroke:none"
             d="M 256.393,73.295 L 187.314,57.341 L 187.645,55.915 L 256.72,71.868 L 256.393,73.295 z" />
          <path
             id="path3523"
             style="fill:#b1cfef;fill-opacity:1;fill-rule:nonzero;stroke:none"
             d="M 256.042,74.812 L 186.965,58.857 L 187.294,57.433 L 256.37,73.385 L 256.042,74.812 z" />
          <path
             id="path3525"
             style="fill:#b3d1f0;fill-opacity:1;fill-rule:nonzero;stroke:none"
             d="M 255.691,76.328 L 186.615,60.374 L 186.944,58.951 L 256.021,74.901 L 255.691,76.328 z" />
          <path
             id="path3527"
             style="fill:#b3d1f0;fill-opacity:1;fill-rule:nonzero;stroke:none"
             d="M 251.842,93.004 L 182.792,77.056 L 186.792,59.725 L 255.841,75.671 L 251.842,93.004 z" />
        </g>
      </g>
      <g
         transform="matrix(1.25,0,0,-1.25,156.71122,980.41772)"
         id="g3529">
        <g
           clip-path="url(#clipPath3533)"
           id="g3531">
          <path
             id="path3537"
             style="fill:#6c99d7;fill-opacity:1;fill-rule:nonzero;stroke:none"
             d="M 254.572,84.711 L 236.119,36.621 L 250.506,31.097 L 268.959,79.187 L 254.572,84.711 z" />
          <path
             id="path3539"
             style="fill:#6c99d7;fill-opacity:1;fill-rule:nonzero;stroke:none"
             d="M 253.898,84.97 L 235.392,36.739 L 236.896,36.164 L 255.403,84.392 L 253.898,84.97 z" />
          <path
             id="path3541"
             style="fill:#719cd9;fill-opacity:1;fill-rule:nonzero;stroke:none"
             d="M 252.506,85.503 L 233.998,37.274 L 235.504,36.697 L 254.01,84.925 L 252.506,85.503 z" />
          <path
             id="path3543"
             style="fill:#76a0db;fill-opacity:1;fill-rule:nonzero;stroke:none"
             d="M 251.112,86.037 L 232.606,37.81 L 234.111,37.231 L 252.618,85.46 L 251.112,86.037 z" />
          <path
             id="path3545"
             style="fill:#7aa4dc;fill-opacity:1;fill-rule:nonzero;stroke:none"
             d="M 249.721,86.573 L 231.213,38.347 L 232.719,37.768 L 251.225,85.994 L 249.721,86.573 z" />
          <path
             id="path3547"
             style="fill:#7fa7de;fill-opacity:1;fill-rule:nonzero;stroke:none"
             d="M 248.328,87.109 L 229.821,38.879 L 231.326,38.301 L 249.832,86.53 L 248.328,87.109 z" />
          <path
             id="path3549"
             style="fill:#84abe0;fill-opacity:1;fill-rule:nonzero;stroke:none"
             d="M 246.936,87.641 L 228.427,39.414 L 229.934,38.836 L 248.439,87.063 L 246.936,87.641 z" />
          <path
             id="path3551"
             style="fill:#89afe1;fill-opacity:1;fill-rule:nonzero;stroke:none"
             d="M 245.542,88.176 L 227.035,39.95 L 228.542,39.372 L 247.046,87.599 L 245.542,88.176 z" />
          <path
             id="path3553"
             style="fill:#8eb3e3;fill-opacity:1;fill-rule:nonzero;stroke:none"
             d="M 244.15,88.713 L 225.643,40.485 L 227.148,39.907 L 245.654,88.135 L 244.15,88.713 z" />
          <path
             id="path3555"
             style="fill:#93b7e5;fill-opacity:1;fill-rule:nonzero;stroke:none"
             d="M 242.758,89.247 L 224.25,41.018 L 225.755,40.44 L 244.261,88.671 L 242.758,89.247 z" />
          <path
             id="path3557"
             style="fill:#99bbe7;fill-opacity:1;fill-rule:nonzero;stroke:none"
             d="M 241.365,89.78 L 222.857,41.554 L 224.363,40.976 L 242.869,89.203 L 241.365,89.78 z" />
          <path
             id="path3559"
             style="fill:#9ec0e9;fill-opacity:1;fill-rule:nonzero;stroke:none"
             d="M 239.972,90.316 L 221.464,42.09 L 222.97,41.511 L 241.476,89.739 L 239.972,90.316 z" />
          <path
             id="path3561"
             style="fill:#a3c4ea;fill-opacity:1;fill-rule:nonzero;stroke:none"
             d="M 238.579,90.852 L 220.072,42.625 L 221.577,42.047 L 240.083,90.274 L 238.579,90.852 z" />
          <path
             id="path3563"
             style="fill:#a8c8ec;fill-opacity:1;fill-rule:nonzero;stroke:none"
             d="M 237.187,91.384 L 218.681,43.156 L 220.185,42.58 L 238.69,90.806 L 237.187,91.384 z" />
          <path
             id="path3565"
             style="fill:#aecdee;fill-opacity:1;fill-rule:nonzero;stroke:none"
             d="M 235.793,91.92 L 217.288,43.693 L 218.792,43.115 L 237.298,91.342 L 235.793,91.92 z" />
          <path
             id="path3567"
             style="fill:#b3d1f0;fill-opacity:1;fill-rule:nonzero;stroke:none"
             d="M 234.402,92.456 L 215.895,44.228 L 217.4,43.65 L 235.906,91.877 L 234.402,92.456 z" />
          <path
             id="path3569"
             style="fill:#b3d1f0;fill-opacity:1;fill-rule:nonzero;stroke:none"
             d="M 226.665,95.426 L 208.195,47.291 L 216.687,44.032 L 235.156,92.166 L 226.665,95.426 z" />
        </g>
      </g>
      <path
         id="path3571"
         style="fill:#dedede;fill-opacity:1;fill-rule:nonzero;stroke:none"
         d="M 414.51875,915.93147 L 479.89995,878.44897 L 486.10495,891.45397 L 477.20375,898.19522 L 486.58745,914.08272 L 500.42245,906.61272 L 500.42245,909.38897 L 524.72245,909.38897 L 532.90995,923.63522 L 447.21125,974.06522 L 414.51875,915.93147 z" />
      <g
         transform="matrix(1.25,0,0,-1.25,156.71122,980.41772)"
         id="g3573">
        <g
           clip-path="url(#clipPath3577)"
           id="g3575">
          <g
             id="g3581">
            <g
               clip-path="url(#clipPath3585)"
               id="g3583">
              <path
                 id="path3589"
                 style="fill:#708fbf;fill-opacity:1;fill-rule:nonzero;stroke:none"
                 d="M 267.595,24.748 L 198.519,8.796 L 198.847,7.372 L 267.924,23.325 L 267.595,24.748 z" />
              <path
                 id="path3591"
                 style="fill:#7190c0;fill-opacity:1;fill-rule:nonzero;stroke:none"
                 d="M 267.245,26.266 L 198.169,10.313 L 198.498,8.888 L 267.574,24.841 L 267.245,26.266 z" />
              <path
                 id="path3593"
                 style="fill:#7391c0;fill-opacity:1;fill-rule:nonzero;stroke:none"
                 d="M 266.896,27.781 L 197.818,11.829 L 198.147,10.405 L 267.224,26.358 L 266.896,27.781 z" />
              <path
                 id="path3595"
                 style="fill:#7492c1;fill-opacity:1;fill-rule:nonzero;stroke:none"
                 d="M 266.545,29.299 L 197.469,13.347 L 197.798,11.921 L 266.873,27.874 L 266.545,29.299 z" />
              <path
                 id="path3597"
                 style="fill:#7694c2;fill-opacity:1;fill-rule:nonzero;stroke:none"
                 d="M 266.195,30.817 L 197.118,14.864 L 197.447,13.438 L 266.523,29.391 L 266.195,30.817 z" />
              <path
                 id="path3599"
                 style="fill:#7795c2;fill-opacity:1;fill-rule:nonzero;stroke:none"
                 d="M 265.844,32.334 L 196.768,16.38 L 197.098,14.954 L 266.173,30.908 L 265.844,32.334 z" />
              <path
                 id="path3601"
                 style="fill:#7996c3;fill-opacity:1;fill-rule:nonzero;stroke:none"
                 d="M 265.493,33.851 L 196.418,17.896 L 196.747,16.475 L 265.823,32.428 L 265.493,33.851 z" />
              <path
                 id="path3603"
                 style="fill:#7a97c3;fill-opacity:1;fill-rule:nonzero;stroke:none"
                 d="M 265.145,35.368 L 196.068,19.414 L 196.397,17.99 L 265.473,33.944 L 265.145,35.368 z" />
              <path
                 id="path3605"
                 style="fill:#7c98c4;fill-opacity:1;fill-rule:nonzero;stroke:none"
                 d="M 264.794,36.884 L 195.718,20.93 L 196.047,19.508 L 265.123,35.461 L 264.794,36.884 z" />
              <path
                 id="path3607"
                 style="fill:#7d9ac4;fill-opacity:1;fill-rule:nonzero;stroke:none"
                 d="M 264.444,38.402 L 195.368,22.45 L 195.698,21.023 L 264.774,36.978 L 264.444,38.402 z" />
              <path
                 id="path3609"
                 style="fill:#7f9bc5;fill-opacity:1;fill-rule:nonzero;stroke:none"
                 d="M 264.094,39.92 L 195.018,23.967 L 195.347,22.54 L 264.423,38.493 L 264.094,39.92 z" />
              <path
                 id="path3611"
                 style="fill:#819cc5;fill-opacity:1;fill-rule:nonzero;stroke:none"
                 d="M 263.743,41.436 L 194.669,25.483 L 194.997,24.06 L 264.073,40.009 L 263.743,41.436 z" />
              <path
                 id="path3613"
                 style="fill:#829dc6;fill-opacity:1;fill-rule:nonzero;stroke:none"
                 d="M 263.394,42.953 L 194.318,26.999 L 194.646,25.575 L 263.722,41.528 L 263.394,42.953 z" />
              <path
                 id="path3615"
                 style="fill:#849fc6;fill-opacity:1;fill-rule:nonzero;stroke:none"
                 d="M 263.044,44.469 L 193.968,28.515 L 194.297,27.093 L 263.372,43.045 L 263.044,44.469 z" />
              <path
                 id="path3617"
                 style="fill:#85a0c7;fill-opacity:1;fill-rule:nonzero;stroke:none"
                 d="M 262.693,45.986 L 193.617,30.034 L 193.946,28.608 L 263.023,44.563 L 262.693,45.986 z" />
              <path
                 id="path3619"
                 style="fill:#87a1c8;fill-opacity:1;fill-rule:nonzero;stroke:none"
                 d="M 262.343,47.505 L 193.267,31.551 L 193.597,30.125 L 262.673,46.078 L 262.343,47.505 z" />
              <path
                 id="path3621"
                 style="fill:#88a2c8;fill-opacity:1;fill-rule:nonzero;stroke:none"
                 d="M 261.993,49.022 L 192.917,33.068 L 193.246,31.642 L 262.322,47.596 L 261.993,49.022 z" />
              <path
                 id="path3623"
                 style="fill:#8aa4c9;fill-opacity:1;fill-rule:nonzero;stroke:none"
                 d="M 261.644,50.538 L 192.567,34.584 L 192.896,33.162 L 261.972,49.114 L 261.644,50.538 z" />
              <path
                 id="path3625"
                 style="fill:#8ca5c9;fill-opacity:1;fill-rule:nonzero;stroke:none"
                 d="M 261.293,52.054 L 192.217,36.102 L 192.547,34.678 L 261.621,50.632 L 261.293,52.054 z" />
              <path
                 id="path3627"
                 style="fill:#8da6ca;fill-opacity:1;fill-rule:nonzero;stroke:none"
                 d="M 260.943,53.57 L 191.867,37.617 L 192.196,36.194 L 261.273,52.147 L 260.943,53.57 z" />
              <path
                 id="path3629"
                 style="fill:#8fa8ca;fill-opacity:1;fill-rule:nonzero;stroke:none"
                 d="M 260.592,55.087 L 191.517,39.138 L 191.846,37.711 L 260.922,53.663 L 260.592,55.087 z" />
              <path
                 id="path3631"
                 style="fill:#90a9cb;fill-opacity:1;fill-rule:nonzero;stroke:none"
                 d="M 260.242,56.607 L 191.167,40.653 L 191.496,39.228 L 260.572,55.181 L 260.242,56.607 z" />
              <path
                 id="path3633"
                 style="fill:#92aacb;fill-opacity:1;fill-rule:nonzero;stroke:none"
                 d="M 259.894,58.124 L 190.816,42.169 L 191.146,40.745 L 260.222,56.697 L 259.894,58.124 z" />
              <path
                 id="path3635"
                 style="fill:#94accc;fill-opacity:1;fill-rule:nonzero;stroke:none"
                 d="M 259.543,59.641 L 190.467,43.687 L 190.795,42.264 L 259.871,58.214 L 259.543,59.641 z" />
              <path
                 id="path3637"
                 style="fill:#95adcd;fill-opacity:1;fill-rule:nonzero;stroke:none"
                 d="M 259.192,61.157 L 190.116,45.203 L 190.445,43.779 L 259.522,59.732 L 259.192,61.157 z" />
              <path
                 id="path3639"
                 style="fill:#97aecd;fill-opacity:1;fill-rule:nonzero;stroke:none"
                 d="M 258.842,62.673 L 189.766,46.72 L 190.096,45.296 L 259.172,61.25 L 258.842,62.673 z" />
              <path
                 id="path3641"
                 style="fill:#98b0ce;fill-opacity:1;fill-rule:nonzero;stroke:none"
                 d="M 258.492,64.192 L 189.416,48.238 L 189.746,46.812 L 258.821,62.766 L 258.492,64.192 z" />
              <path
                 id="path3643"
                 style="fill:#9ab1ce;fill-opacity:1;fill-rule:nonzero;stroke:none"
                 d="M 258.144,65.708 L 189.065,49.756 L 189.395,48.329 L 258.471,64.283 L 258.144,65.708 z" />
              <path
                 id="path3645"
                 style="fill:#9cb2cf;fill-opacity:1;fill-rule:nonzero;stroke:none"
                 d="M 257.792,67.225 L 188.716,51.271 L 189.044,49.85 L 258.121,65.8 L 257.792,67.225 z" />
              <path
                 id="path3647"
                 style="fill:#9db4cf;fill-opacity:1;fill-rule:nonzero;stroke:none"
                 d="M 257.443,68.741 L 188.366,52.789 L 188.694,51.365 L 257.771,67.318 L 257.443,68.741 z" />
              <path
                 id="path3649"
                 style="fill:#9fb5d0;fill-opacity:1;fill-rule:nonzero;stroke:none"
                 d="M 257.092,70.259 L 188.015,54.306 L 188.345,52.882 L 257.421,68.835 L 257.092,70.259 z" />
              <path
                 id="path3651"
                 style="fill:#a1b7d1;fill-opacity:1;fill-rule:nonzero;stroke:none"
                 d="M 256.741,71.774 L 187.665,55.825 L 187.994,54.399 L 257.071,70.352 L 256.741,71.774 z" />
              <path
                 id="path3653"
                 style="fill:#a2b8d1;fill-opacity:1;fill-rule:nonzero;stroke:none"
                 d="M 256.393,73.295 L 187.314,57.341 L 187.645,55.915 L 256.72,71.868 L 256.393,73.295 z" />
              <path
                 id="path3655"
                 style="fill:#a4b9d2;fill-opacity:1;fill-rule:nonzero;stroke:none"
                 d="M 256.042,74.812 L 186.965,58.857 L 187.294,57.433 L 256.37,73.385 L 256.042,74.812 z" />
              <path
                 id="path3657"
                 style="fill:#a5bbd2;fill-opacity:1;fill-rule:nonzero;stroke:none"
                 d="M 255.691,76.328 L 186.615,60.374 L 186.944,58.951 L 256.021,74.901 L 255.691,76.328 z" />
            </g>
          </g>
        </g>
      </g>
      <g
         transform="matrix(1.25,0,0,-1.25,156.71122,980.41772)"
         id="g3659">
        <g
           clip-path="url(#clipPath3663)"
           id="g3661">
          <g
             id="g3667">
            <g
               clip-path="url(#clipPath3671)"
               id="g3669">
              <path
                 id="path3675"
                 style="fill:#a5bbd2;fill-opacity:1;fill-rule:nonzero;stroke:none"
                 d="M 251.842,93.004 L 182.792,77.056 L 186.792,59.725 L 255.841,75.671 L 251.842,93.004 z" />
            </g>
          </g>
        </g>
      </g>
      <g
         transform="matrix(1.25,0,0,-1.25,156.71122,980.41772)"
         id="g3677">
        <g
           clip-path="url(#clipPath3681)"
           id="g3679">
          <g
             id="g3685">
            <g
               clip-path="url(#clipPath3689)"
               id="g3687">
              <path
                 id="path3693"
                 style="fill:#708fbf;fill-opacity:1;fill-rule:nonzero;stroke:none"
                 d="M 254.572,84.711 L 236.119,36.621 L 250.506,31.097 L 268.959,79.187 L 254.572,84.711 z" />
            </g>
          </g>
        </g>
      </g>
      <g
         transform="matrix(1.25,0,0,-1.25,156.71122,980.41772)"
         id="g3695">
        <g
           clip-path="url(#clipPath3699)"
           id="g3697">
          <g
             id="g3703">
            <g
               clip-path="url(#clipPath3707)"
               id="g3705">
              <path
                 id="path3711"
                 style="fill:#708fbf;fill-opacity:1;fill-rule:nonzero;stroke:none"
                 d="M 253.898,84.97 L 235.392,36.739 L 236.896,36.164 L 255.403,84.392 L 253.898,84.97 z" />
              <path
                 id="path3713"
                 style="fill:#7392c1;fill-opacity:1;fill-rule:nonzero;stroke:none"
                 d="M 252.506,85.503 L 233.998,37.274 L 235.504,36.697 L 254.01,84.925 L 252.506,85.503 z" />
              <path
                 id="path3715"
                 style="fill:#7795c2;fill-opacity:1;fill-rule:nonzero;stroke:none"
                 d="M 251.112,86.037 L 232.606,37.81 L 234.111,37.231 L 252.618,85.46 L 251.112,86.037 z" />
              <path
                 id="path3717"
                 style="fill:#7b98c3;fill-opacity:1;fill-rule:nonzero;stroke:none"
                 d="M 249.721,86.573 L 231.213,38.347 L 232.719,37.768 L 251.225,85.994 L 249.721,86.573 z" />
              <path
                 id="path3719"
                 style="fill:#7f9bc5;fill-opacity:1;fill-rule:nonzero;stroke:none"
                 d="M 248.328,87.109 L 229.821,38.879 L 231.326,38.301 L 249.832,86.53 L 248.328,87.109 z" />
              <path
                 id="path3721"
                 style="fill:#829ec6;fill-opacity:1;fill-rule:nonzero;stroke:none"
                 d="M 246.936,87.641 L 228.427,39.414 L 229.934,38.836 L 248.439,87.063 L 246.936,87.641 z" />
              <path
                 id="path3723"
                 style="fill:#86a1c7;fill-opacity:1;fill-rule:nonzero;stroke:none"
                 d="M 245.542,88.176 L 227.035,39.95 L 228.542,39.372 L 247.046,87.599 L 245.542,88.176 z" />
              <path
                 id="path3725"
                 style="fill:#8aa4c9;fill-opacity:1;fill-rule:nonzero;stroke:none"
                 d="M 244.15,88.713 L 225.643,40.485 L 227.148,39.907 L 245.654,88.135 L 244.15,88.713 z" />
              <path
                 id="path3727"
                 style="fill:#8ea7ca;fill-opacity:1;fill-rule:nonzero;stroke:none"
                 d="M 242.758,89.247 L 224.25,41.018 L 225.755,40.44 L 244.261,88.671 L 242.758,89.247 z" />
              <path
                 id="path3729"
                 style="fill:#92aacb;fill-opacity:1;fill-rule:nonzero;stroke:none"
                 d="M 241.365,89.78 L 222.857,41.554 L 224.363,40.976 L 242.869,89.203 L 241.365,89.78 z" />
              <path
                 id="path3731"
                 style="fill:#96adcd;fill-opacity:1;fill-rule:nonzero;stroke:none"
                 d="M 239.972,90.316 L 221.464,42.09 L 222.97,41.511 L 241.476,89.739 L 239.972,90.316 z" />
              <path
                 id="path3733"
                 style="fill:#99b1ce;fill-opacity:1;fill-rule:nonzero;stroke:none"
                 d="M 238.579,90.852 L 220.072,42.625 L 221.577,42.047 L 240.083,90.274 L 238.579,90.852 z" />
              <path
                 id="path3735"
                 style="fill:#9eb4cf;fill-opacity:1;fill-rule:nonzero;stroke:none"
                 d="M 237.187,91.384 L 218.681,43.156 L 220.185,42.58 L 238.69,90.806 L 237.187,91.384 z" />
              <path
                 id="path3737"
                 style="fill:#a1b7d1;fill-opacity:1;fill-rule:nonzero;stroke:none"
                 d="M 235.793,91.92 L 217.288,43.693 L 218.792,43.115 L 237.298,91.342 L 235.793,91.92 z" />
              <path
                 id="path3739"
                 style="fill:#a5bbd2;fill-opacity:1;fill-rule:nonzero;stroke:none"
                 d="M 234.402,92.456 L 215.895,44.228 L 217.4,43.65 L 235.906,91.877 L 234.402,92.456 z" />
            </g>
          </g>
        </g>
      </g>
      <g
         transform="matrix(1.25,0,0,-1.25,156.71122,980.41772)"
         id="g3741">
        <g
           clip-path="url(#clipPath3745)"
           id="g3743">
          <g
             id="g3749">
            <g
               clip-path="url(#clipPath3753)"
               id="g3751">
              <path
                 id="path3757"
                 style="fill:#a5bbd2;fill-opacity:1;fill-rule:nonzero;stroke:none"
                 d="M 226.665,95.426 L 208.195,47.291 L 216.687,44.032 L 235.156,92.166 L 226.665,95.426 z" />
            </g>
          </g>
        </g>
      </g>
      <path
         id="path3759"
         style="fill:#e8f1fb;fill-opacity:1;fill-rule:nonzero;stroke:none"
         d="M 415.45245,910.88522 L 480.39245,873.37897 L 483.40495,878.61397 L 480.14125,891.19397 L 489.32495,907.05647 L 505.21125,897.87897 L 509.80125,905.82647 L 517.74625,901.23647 L 513.06495,893.19272 L 518.40245,890.11272 L 534.83625,918.58772 L 448.63245,968.37772 L 415.45245,910.88522 z" />
      <path
         id="path3761"
         style="fill:none;stroke:#96b3e2;stroke-width:0.46124998;stroke-linecap:butt;stroke-linejoin:miter;stroke-miterlimit:3.86400008;stroke-dasharray:none;stroke-opacity:1"
         d="M 415.45245,910.88522 L 480.39245,873.37897 L 483.40495,878.61397 L 480.14125,891.19397 L 489.32495,907.05647 L 505.21125,897.87897 L 509.80125,905.82647 L 517.74625,901.23647 L 513.06495,893.19272 L 518.40245,890.11272 L 534.83625,918.58772 L 448.63245,968.37772 L 415.45245,910.88522 z" />
      <path
         id="path3763"
         style="fill:#b3d1f0;fill-opacity:1;fill-rule:nonzero;stroke:none"
         d="M 483.40495,878.61397 L 476.68625,903.70522 L 493.91245,915.00397 L 509.80125,905.82647 L 517.74625,901.23647 L 526.58125,916.37772 L 450.84375,960.11897 L 423.70875,913.10022 L 483.40495,878.61397 z" />
      <path
         id="path3765"
         style="fill:none;stroke:#6c99d7;stroke-width:0.3125;stroke-linecap:butt;stroke-linejoin:miter;stroke-miterlimit:3.86400008;stroke-dasharray:none;stroke-opacity:1"
         d="M 483.40495,878.61397 L 476.68625,903.70522 L 493.91245,915.00397 L 509.80125,905.82647 L 517.74625,901.23647 L 526.58125,916.37772 L 450.84375,960.11897 L 423.70875,913.10022 L 483.40495,878.61397 z" />
      <path
         id="path3767"
         style="fill:#b3d1f0;fill-opacity:1;fill-rule:nonzero;stroke:none"
         d="M 488.03875,886.62147 L 492.62625,894.56897 L 500.56995,889.97897 L 495.98375,882.03272 L 488.03875,886.62147 z" />
      <g
         transform="matrix(1.25,0,0,-1.25,156.71122,980.41772)"
         id="g3769">
        <g
           clip-path="url(#clipPath3773)"
           id="g3771">
          <path
             id="path3777"
             style="fill:#6c99d7;fill-opacity:1;fill-rule:nonzero;stroke:none"
             d="M 294.996,18.276 L 214.422,18.276 L 214.422,16.799 L 294.996,16.799 L 294.996,18.276 z" />
          <path
             id="path3779"
             style="fill:#6e9ad8;fill-opacity:1;fill-rule:nonzero;stroke:none"
             d="M 294.996,19.811 L 214.422,19.811 L 214.422,18.334 L 294.996,18.334 L 294.996,19.811 z" />
          <path
             id="path3781"
             style="fill:#709cd9;fill-opacity:1;fill-rule:nonzero;stroke:none"
             d="M 294.996,21.346 L 214.422,21.346 L 214.422,19.867 L 294.996,19.867 L 294.996,21.346 z" />
          <path
             id="path3783"
             style="fill:#729ed9;fill-opacity:1;fill-rule:nonzero;stroke:none"
             d="M 294.996,22.88 L 214.422,22.88 L 214.422,21.401 L 294.996,21.401 L 294.996,22.88 z" />
          <path
             id="path3785"
             style="fill:#759fda;fill-opacity:1;fill-rule:nonzero;stroke:none"
             d="M 294.996,24.415 L 214.422,24.415 L 214.422,22.936 L 294.996,22.936 L 294.996,24.415 z" />
          <path
             id="path3787"
             style="fill:#77a1db;fill-opacity:1;fill-rule:nonzero;stroke:none"
             d="M 294.996,25.948 L 214.422,25.948 L 214.422,24.47 L 294.996,24.47 L 294.996,25.948 z" />
          <path
             id="path3789"
             style="fill:#79a3dc;fill-opacity:1;fill-rule:nonzero;stroke:none"
             d="M 294.996,27.483 L 214.422,27.483 L 214.422,26.006 L 294.996,26.006 L 294.996,27.483 z" />
          <path
             id="path3791"
             style="fill:#7ba4dd;fill-opacity:1;fill-rule:nonzero;stroke:none"
             d="M 294.996,29.021 L 214.422,29.021 L 214.422,27.541 L 294.996,27.541 L 294.996,29.021 z" />
          <path
             id="path3793"
             style="fill:#7da6dd;fill-opacity:1;fill-rule:nonzero;stroke:none"
             d="M 294.996,30.556 L 214.422,30.556 L 214.422,29.076 L 294.996,29.076 L 294.996,30.556 z" />
          <path
             id="path3795"
             style="fill:#80a8de;fill-opacity:1;fill-rule:nonzero;stroke:none"
             d="M 294.996,32.091 L 214.422,32.091 L 214.422,30.61 L 294.996,30.61 L 294.996,32.091 z" />
          <path
             id="path3797"
             style="fill:#82a9df;fill-opacity:1;fill-rule:nonzero;stroke:none"
             d="M 294.996,33.625 L 214.422,33.625 L 214.422,32.145 L 294.996,32.145 L 294.996,33.625 z" />
          <path
             id="path3799"
             style="fill:#84abe0;fill-opacity:1;fill-rule:nonzero;stroke:none"
             d="M 294.996,35.16 L 214.422,35.16 L 214.422,33.68 L 294.996,33.68 L 294.996,35.16 z" />
          <path
             id="path3801"
             style="fill:#86ade0;fill-opacity:1;fill-rule:nonzero;stroke:none"
             d="M 294.996,36.694 L 214.422,36.694 L 214.422,35.214 L 294.996,35.214 L 294.996,36.694 z" />
          <path
             id="path3803"
             style="fill:#89afe1;fill-opacity:1;fill-rule:nonzero;stroke:none"
             d="M 294.996,38.229 L 214.422,38.229 L 214.422,36.749 L 294.996,36.749 L 294.996,38.229 z" />
          <path
             id="path3805"
             style="fill:#8bb0e2;fill-opacity:1;fill-rule:nonzero;stroke:none"
             d="M 294.996,39.763 L 214.422,39.763 L 214.422,38.283 L 294.996,38.283 L 294.996,39.763 z" />
          <path
             id="path3807"
             style="fill:#8db2e3;fill-opacity:1;fill-rule:nonzero;stroke:none"
             d="M 294.996,41.297 L 214.422,41.297 L 214.422,39.818 L 294.996,39.818 L 294.996,41.297 z" />
          <path
             id="path3809"
             style="fill:#90b4e4;fill-opacity:1;fill-rule:nonzero;stroke:none"
             d="M 294.996,42.831 L 214.422,42.831 L 214.422,41.355 L 294.996,41.355 L 294.996,42.831 z" />
          <path
             id="path3811"
             style="fill:#92b6e4;fill-opacity:1;fill-rule:nonzero;stroke:none"
             d="M 294.996,44.366 L 214.422,44.366 L 214.422,42.889 L 294.996,42.889 L 294.996,44.366 z" />
          <path
             id="path3813"
             style="fill:#94b8e5;fill-opacity:1;fill-rule:nonzero;stroke:none"
             d="M 294.996,45.9 L 214.422,45.9 L 214.422,44.423 L 294.996,44.423 L 294.996,45.9 z" />
          <path
             id="path3815"
             style="fill:#96bae6;fill-opacity:1;fill-rule:nonzero;stroke:none"
             d="M 294.996,47.437 L 214.422,47.437 L 214.422,45.959 L 294.996,45.959 L 294.996,47.437 z" />
          <path
             id="path3817"
             style="fill:#99bbe7;fill-opacity:1;fill-rule:nonzero;stroke:none"
             d="M 294.996,48.971 L 214.422,48.971 L 214.422,47.492 L 294.996,47.492 L 294.996,48.971 z" />
          <path
             id="path3819"
             style="fill:#9bbde8;fill-opacity:1;fill-rule:nonzero;stroke:none"
             d="M 294.996,50.505 L 214.422,50.505 L 214.422,49.027 L 294.996,49.027 L 294.996,50.505 z" />
          <path
             id="path3821"
             style="fill:#9dbfe8;fill-opacity:1;fill-rule:nonzero;stroke:none"
             d="M 294.996,52.039 L 214.422,52.039 L 214.422,50.561 L 294.996,50.561 L 294.996,52.039 z" />
          <path
             id="path3823"
             style="fill:#a0c1e9;fill-opacity:1;fill-rule:nonzero;stroke:none"
             d="M 294.996,53.577 L 214.422,53.577 L 214.422,52.097 L 294.996,52.097 L 294.996,53.577 z" />
          <path
             id="path3825"
             style="fill:#a2c3ea;fill-opacity:1;fill-rule:nonzero;stroke:none"
             d="M 294.996,55.112 L 214.422,55.112 L 214.422,53.63 L 294.996,53.63 L 294.996,55.112 z" />
          <path
             id="path3827"
             style="fill:#a4c5eb;fill-opacity:1;fill-rule:nonzero;stroke:none"
             d="M 294.996,56.646 L 214.422,56.646 L 214.422,55.166 L 294.996,55.166 L 294.996,56.646 z" />
          <path
             id="path3829"
             style="fill:#a7c7ec;fill-opacity:1;fill-rule:nonzero;stroke:none"
             d="M 294.996,58.181 L 214.422,58.181 L 214.422,56.702 L 294.996,56.702 L 294.996,58.181 z" />
          <path
             id="path3831"
             style="fill:#a9c9ec;fill-opacity:1;fill-rule:nonzero;stroke:none"
             d="M 294.996,59.715 L 214.422,59.715 L 214.422,58.236 L 294.996,58.236 L 294.996,59.715 z" />
          <path
             id="path3833"
             style="fill:#accbed;fill-opacity:1;fill-rule:nonzero;stroke:none"
             d="M 294.996,61.25 L 214.422,61.25 L 214.422,59.771 L 294.996,59.771 L 294.996,61.25 z" />
          <path
             id="path3835"
             style="fill:#aecdee;fill-opacity:1;fill-rule:nonzero;stroke:none"
             d="M 294.996,62.785 L 214.422,62.785 L 214.422,61.304 L 294.996,61.304 L 294.996,62.785 z" />
          <path
             id="path3837"
             style="fill:#b0cfef;fill-opacity:1;fill-rule:nonzero;stroke:none"
             d="M 294.996,64.319 L 214.422,64.319 L 214.422,62.839 L 294.996,62.839 L 294.996,64.319 z" />
          <path
             id="path3839"
             style="fill:#b3d1f0;fill-opacity:1;fill-rule:nonzero;stroke:none"
             d="M 294.996,65.854 L 214.422,65.854 L 214.422,64.376 L 294.996,64.376 L 294.996,65.854 z" />
          <path
             id="path3841"
             style="fill:#b3d1f0;fill-opacity:1;fill-rule:nonzero;stroke:none"
             d="M 294.996,81.262 L 214.422,81.262 L 214.422,64.993 L 294.996,64.993 L 294.996,81.262 z" />
        </g>
      </g>
      <path
         id="path3843"
         style="fill:#6c99d7;fill-opacity:1;fill-rule:nonzero;stroke:none"
         d="M 491.45245,874.08897 L 499.39745,869.50147 L 503.98375,877.44897 L 496.03875,882.03772 L 491.45245,874.08897 z" />
      <path
         id="path3845"
         style="fill:#c9def4;fill-opacity:1;fill-rule:nonzero;stroke:none"
         d="M 481.37995,911.69397 L 489.32495,907.10397 L 493.91245,915.05272 L 485.96995,919.64022 L 481.37995,911.69397 z" />
      <path
         id="path3847"
         style="fill:#96b3e2;fill-opacity:1;fill-rule:nonzero;stroke:none"
         d="M 494.81125,861.55272 L 502.75495,856.96647 L 507.34125,864.91272 L 499.39745,869.50147 L 494.81125,861.55272 z" />
      <path
         id="path3849"
         style="fill:#6c99d7;fill-opacity:1;fill-rule:nonzero;stroke:none"
         d="M 515.28625,860.32397 L 523.23125,855.73522 L 527.81875,863.68147 L 519.87375,868.27147 L 515.28625,860.32397 z" />
      <path
         id="path3851"
         style="fill:#b3d1f0;fill-opacity:1;fill-rule:nonzero;stroke:none"
         d="M 503.98375,877.44897 L 511.92875,872.86022 L 516.51745,880.80647 L 508.57125,885.39647 L 503.98375,877.44897 z" />
      <path
         id="path3853"
         style="fill:#c9def4;fill-opacity:1;fill-rule:nonzero;stroke:none"
         d="M 501.83625,910.44772 L 509.77995,905.86022 L 514.36745,913.80772 L 506.42375,918.39647 L 501.83625,910.44772 z" />
      <path
         id="path3855"
         style="fill:#c9def4;fill-opacity:1;fill-rule:nonzero;stroke:none"
         d="M 468.86375,908.37272 L 476.80875,903.78397 L 481.39495,911.73022 L 473.45125,916.32022 L 468.86375,908.37272 z" />
      <path
         id="path3857"
         style="fill:#c9def4;fill-opacity:1;fill-rule:nonzero;stroke:none"
         d="M 472.19995,895.83647 L 480.14375,891.24897 L 484.73125,899.19522 L 476.78625,903.77772 L 472.19995,895.83647 z" />
      <path
         id="path3859"
         style="fill:#c9def4;fill-opacity:1;fill-rule:nonzero;stroke:none"
         d="M 475.54495,883.27772 L 483.46495,878.70522 L 488.06375,886.67022 L 480.14375,891.24897 L 475.54495,883.27772 z" />
      <path
         id="path3861"
         style="fill:#b3d1f0;fill-opacity:1;fill-rule:nonzero;stroke:none"
         d="M 500.56995,889.97897 L 505.15245,897.91647 L 513.06875,893.22272 L 508.57125,885.34272 L 500.56995,889.97897 z" />
      <path
         id="path3863"
         style="fill:#6c99d7;fill-opacity:1;fill-rule:nonzero;stroke:none"
         d="M 480.14125,891.19397 L 484.72875,899.14272 L 492.62995,894.57647 L 488.03875,886.58397 L 480.14125,891.19397 z" />
      <path
         id="path3865"
         style="fill:#c9def4;fill-opacity:1;fill-rule:nonzero;stroke:none"
         d="M 492.62245,894.60647 L 500.62875,889.98397 L 505.21375,897.93272 L 497.20875,902.55397 L 492.62245,894.60647 z" />
    </g>
  </g>
</svg>
