<?xml version="1.0" encoding="UTF-8" standalone="no"?>
<!-- Created with Inkscape (http://www.inkscape.org/) -->
<svg id="svg2" xmlns:rdf="http://www.w3.org/1999/02/22-rdf-syntax-ns#" xmlns="http://www.w3.org/2000/svg" height="128" width="128" version="1.1" xmlns:cc="http://creativecommons.org/ns#" xmlns:dc="http://purl.org/dc/elements/1.1/">
 <defs id="defs4">
  <filter id="filter3787" color-interpolation-filters="sRGB">
   <feGaussianBlur id="feGaussianBlur3789" stdDeviation="1.3609914"/>
  </filter>
 </defs>
 <metadata id="metadata7">
  <rdf:RDF>
   <cc:Work rdf:about="">
    <dc:format>image/svg+xml</dc:format>
    <dc:type rdf:resource="http://purl.org/dc/dcmitype/StillImage"/>
    <dc:title/>
   </cc:Work>
  </rdf:RDF>
 </metadata>
 <g id="layer1" transform="translate(0 -924.36)">
  <rect id="rect4931" style="filter:url(#filter3787);fill:#1a1a1a;fill-opacity:.70297" transform="matrix(.96932 0 0 1 2.1671 0)" height="58.19" width="123.28" y="983.61" x="2.1552"/>
  <rect id="rect2985" style="stroke:#00a440;stroke-width:.97753;fill:#003200" height="59.091" width="120.28" y="973.61" x=".69930"/>
  <path id="path3759" style="stroke:#004f00;stroke-width:1px;fill:none" d="m15.385 980.6c0 46.503 0.34965 45.804 0.34965 45.804v0.3497"/>
  <path id="path3759-5" style="stroke:#004f00;stroke-width:1px;fill:none" d="m22.916 980.87c0 46.504 0.34965 45.804 0.34965 45.804v0.3496"/>
  <path id="path3759-0" style="stroke:#004f00;stroke-width:1px;fill:none" d="m30.916 980.87c0 46.504 0.34965 45.804 0.34965 45.804v0.3496"/>
  <path id="path3759-3" style="stroke:#004f00;stroke-width:1px;fill:none" d="m38.916 980.87c0 46.504 0.34965 45.804 0.34965 45.804v0.3496"/>
  <path id="path3759-1" style="stroke:#004f00;stroke-width:1px;fill:none" d="m46.524 981.36c0 46.504 0.34965 45.804 0.34965 45.804v0.3496"/>
  <path id="path3759-06" style="stroke:#004f00;stroke-width:1px;fill:none" d="m54.524 981.36c0 46.504 0.34965 45.804 0.34965 45.804v0.3496"/>
  <path id="path3759-32" style="stroke:#004f00;stroke-width:1px;fill:none" d="m62.524 981.36c0 46.504 0.34965 45.804 0.34965 45.804v0.3496"/>
  <path id="path3759-061" style="stroke:#004f00;stroke-width:1px;fill:none" d="m70.524 981.36c0 46.504 0.34965 45.804 0.34965 45.804v0.3496"/>
  <path id="path3759-55" style="stroke:#004f00;stroke-width:1px;fill:none" d="m78.524 981.36c0 46.504 0.34965 45.804 0.34965 45.804v0.3496"/>
  <path id="path3759-4" style="stroke:#004f00;stroke-width:1px;fill:none" d="m86.524 981.36c0 46.504 0.34965 45.804 0.34965 45.804v0.3496"/>
  <path id="path3759-7" style="stroke:#004f00;stroke-width:1px;fill:none" d="m94.524 981.36c0 46.504 0.34965 45.804 0.34965 45.804v0.3496"/>
  <path id="path3759-6" style="stroke:#004f00;stroke-width:1px;fill:none" d="m102.52 981.36c0 46.504 0.34965 45.804 0.34965 45.804v0.3496"/>
  <path id="path3759-56" style="stroke:#004f00;stroke-width:1px;fill:none" d="m110.52 981.36c0 46.504 0.34965 45.804 0.34965 45.804v0.3496"/>
  <text id="text3870" style="font-size:5.5468px;letter-spacing:0px;word-spacing:0px;font-family:Sans;line-height:125%;fill:#00901d" xml:space="preserve" transform="scale(1.1122 .89911)" y="1088.694" x="19.374784"><tspan id="tspan3872" x="19.374784" y="1088.694">1</tspan></text>
  <text id="text3870-3" style="font-size:5.5468px;letter-spacing:0px;word-spacing:0px;font-family:Sans;line-height:125%;fill:#00901d" xml:space="preserve" transform="scale(1.1122 .89911)" y="1088.4608" x="47.367229"><tspan id="tspan3872-7" x="47.367229" y="1088.4608">2</tspan></text>
  <text id="text3870-3-4" style="font-size:5.5468px;letter-spacing:0px;word-spacing:0px;font-family:Sans;line-height:125%;fill:#00901d" xml:space="preserve" transform="scale(1.1122 .89911)" y="1088.5439" x="76.651688"><tspan id="tspan3872-7-5" x="76.651688" y="1088.5439">3</tspan></text>
  <path id="path3759-0-4" style="stroke:#008d34;stroke-width:1px;fill:none" d="m38.79 981.8c0 46.503 0.34965 45.804 0.34965 45.804v0.3496"/>
  <rect id="rect3755" style="stroke:#00a42f;stroke-width:.98346;fill:none" height="46.853" width="110.58" y="980.25" x="6.993"/>
  <path id="path3757" style="stroke:#00b12f;stroke-width:.98301px;fill:none" d="m6.993 1003.7l110.48-0.3497"/>
  <path id="path3759-0-4-7" style="stroke:#008d34;stroke-width:1px;fill:none" d="m70.385 980.95c0 46.503 0.34965 45.804 0.34965 45.804v0.3496"/>
  <path id="path3759-0-4-4" style="stroke:#008d34;stroke-width:1px;fill:none" d="m102.38 980.35c0 46.504 0.34966 45.804 0.34966 45.804v0.3496"/>
  <path id="path3980" style="stroke:#4bdc7f;stroke-width:2;fill:none" d="m6.993 1025.7h4.5455"/>
  <path id="path3980-4" style="stroke:#4bdc7f;stroke-width:2;fill:none" d="m15.462 1015.5h4.5455"/>
  <path id="path3980-3" style="stroke:#4bdc7f;stroke-width:2;fill:none" d="m15.49 1020.7h4.5455"/>
  <path id="path3980-0" style="stroke:#4bdc7f;stroke-width:2;fill:none" d="m15.392 1025.7h4.5455"/>
  <path id="path3980-7" style="stroke:#4bdc7f;stroke-width:2;fill:none" d="m39.252 1025.7h4.5455"/>
  <path id="path3980-8" style="stroke:#4bdc7f;stroke-width:2;fill:none" d="m30.636 1002.2h4.5455"/>
  <path id="path3980-6" style="stroke:#4bdc7f;stroke-width:2;fill:none" d="m54.371 1002.3h4.5455"/>
  <path id="path3980-6-8" style="stroke:#4bdc7f;stroke-width:2;fill:none" d="m71 1002.1h4.5455"/>
  <path id="path3980-6-84" style="stroke:#4bdc7f;stroke-width:2;fill:none" d="m71 996.81h4.5455"/>
  <path id="path3980-6-3" style="stroke:#4bdc7f;stroke-width:2;fill:none" d="m71 991.16h4.5455"/>
  <path id="path3980-6-1" style="stroke:#4bdc7f;stroke-width:2;fill:none" d="m86.944 1025.7h4.5455"/>
  <path id="path3980-6-4" style="stroke:#4bdc7f;stroke-width:2;fill:none" d="m102.94 1009.2h4.5454"/>
  <path id="path3980-6-9" style="stroke:#4bdc7f;stroke-width:2;fill:none" d="m102.94 1015.2h4.5454"/>
  <path id="path3980-6-2" style="stroke:#4bdc7f;stroke-width:2;fill:none" d="m103.04 1020.7h4.5454"/>
  <text id="text4114" style="font-size:72px;font-weight:bold;letter-spacing:0px;word-spacing:0px;font-family:Sans;line-height:125%;fill:#1a1a1a" xml:space="preserve" y="1007.2993" x="36.811184"><tspan id="tspan4116" x="36.811184" style="font-size:72px;font-weight:bold;font-family:Sans;line-height:125%;fill:#1a1a1a" y="1007.2993">Q</tspan></text>
  <text id="text4114-0" style="font-size:72px;font-weight:bold;letter-spacing:0px;word-spacing:0px;font-family:Sans;line-height:125%;fill:#71e572" xml:space="preserve" y="1003.6852" x="32.798679"><tspan id="tspan4116-6" x="32.798679" style="font-size:72px;font-weight:bold;font-family:Sans;line-height:125%;fill:#71e572" y="1003.6852">Q</tspan></text>
  <text id="text3870-36" style="font-size:5.5468px;letter-spacing:0px;word-spacing:0px;font-family:Sans;line-height:125%;fill:#00901d" xml:space="preserve" transform="scale(1.1122 .89911)" y="1106.4897" x="1.5351157"><tspan id="tspan3872-1" x="1.5351157" y="1106.4897">1</tspan></text>
  <text id="text3870-0" style="font-size:5.5468px;letter-spacing:0px;word-spacing:0px;font-family:Sans;line-height:125%;fill:#00901d" xml:space="preserve" transform="scale(1.1122 .89911)" y="1131.8981" x="1.5351157"><tspan id="tspan3872-6" x="1.5351157" y="1131.8981">0</tspan></text>
  <path id="path3980-4-3" style="stroke:#4bdc7f;stroke-width:2;fill:none" d="m62.865 1029.7h4.5455"/>
 </g>
</svg>
