<?xml version="1.0" encoding="UTF-8" standalone="no"?>
<!-- Created with Inkscape (http://www.inkscape.org/) -->

<svg
   xmlns:dc="http://purl.org/dc/elements/1.1/"
   xmlns:cc="http://creativecommons.org/ns#"
   xmlns:rdf="http://www.w3.org/1999/02/22-rdf-syntax-ns#"
   xmlns:svg="http://www.w3.org/2000/svg"
   xmlns="http://www.w3.org/2000/svg"
   xmlns:sodipodi="http://sodipodi.sourceforge.net/DTD/sodipodi-0.dtd"
   xmlns:inkscape="http://www.inkscape.org/namespaces/inkscape"
   id="svg2"
   version="1.1"
   inkscape:version="0.47 r22583"
   width="450"
   height="450"
   sodipodi:docname="visolate.png">
  <metadata
     id="metadata8">
    <rdf:RDF>
      <cc:Work
         rdf:about="">
        <dc:format>image/svg+xml</dc:format>
        <dc:type
           rdf:resource="http://purl.org/dc/dcmitype/StillImage" />
        <dc:title></dc:title>
      </cc:Work>
    </rdf:RDF>
  </metadata>
  <defs
     id="defs6">
    <inkscape:perspective
       sodipodi:type="inkscape:persp3d"
       inkscape:vp_x="0 : 0.5 : 1"
       inkscape:vp_y="0 : 1000 : 0"
       inkscape:vp_z="1 : 0.5 : 1"
       inkscape:persp3d-origin="0.5 : 0.33333333 : 1"
       id="perspective10" />
    <inkscape:perspective
       id="perspective3625"
       inkscape:persp3d-origin="0.5 : 0.33333333 : 1"
       inkscape:vp_z="1 : 0.5 : 1"
       inkscape:vp_y="0 : 1000 : 0"
       inkscape:vp_x="0 : 0.5 : 1"
       sodipodi:type="inkscape:persp3d" />
    <inkscape:perspective
       id="perspective3647"
       inkscape:persp3d-origin="0.5 : 0.33333333 : 1"
       inkscape:vp_z="1 : 0.5 : 1"
       inkscape:vp_y="0 : 1000 : 0"
       inkscape:vp_x="0 : 0.5 : 1"
       sodipodi:type="inkscape:persp3d" />
  </defs>
  <sodipodi:namedview
     pagecolor="#ffffff"
     bordercolor="#666666"
     borderopacity="1"
     objecttolerance="10"
     gridtolerance="10"
     guidetolerance="10"
     inkscape:pageopacity="0"
     inkscape:pageshadow="2"
     inkscape:window-width="1398"
     inkscape:window-height="1011"
     id="namedview4"
     showgrid="false"
     inkscape:zoom="1.1688889"
     inkscape:cx="197.02156"
     inkscape:cy="206.15095"
     inkscape:window-x="0"
     inkscape:window-y="16"
     inkscape:window-maximized="0"
     inkscape:current-layer="svg2" />
  <path
     id="path2828"
     d="M 0,225 0,0 l 225,0 225,0 0,225 0,225 -225,0 -225,0 0,-225 z"
     style="fill:#f9f9f8" />
  <path
     id="path2826"
     d="m 173,372.74448 0,-77.25551 -33.98184,-33.97082 -37.98185,-37.97082 6.51091,-6.51082 38.97639,38.98682 34.97639,34.98681 0.26764,79.49493 0.26763,79.49493 -4.51763,0 -4.51764,0 0,-77.25552 z m 43,-21.99786 0,-99.25338 C 47.322232,79.214916 46.705331,82.02389 224.24665,246 224.66099,246 225,190.65 225,123 L 225,0 337.5,0 450,0 l 0,225 0,225 -117,0 -117,0 0,-99.25338 z"
     style="fill:#59879f"
     sodipodi:nodetypes="cccccccccccccccccccccccc" />
  <path
     id="path2824"
     d="m 216,350.74662 0,-99.25338 -55.4805,-55.47374 -59.4805,-59.47375 6.50673,-6.50672 59.97379,59.98049 C 198.3051,220.80878 223.83231,246 224.24665,246 224.66099,246 225,190.65 225,123 L 225,0 337.5,0 450,0 l 0,225 0,225 -77.5,0 -77.5,0 0,-59.81241 0,-59.81241 2.85211,-8.43759 c 1.56866,-4.64068 3.78354,-10.23759 4.92196,-12.43759 2.64965,-5.12049 42.26127,-44.39028 48.23643,-47.82019 7.51719,-4.31506 16.93803,-7.38168 27.9895,-9.111 13.01194,-2.03608 13.66021,-2.23319 14.31316,-4.35193 0.291,-0.94428 2.43756,-6.89188 4.77012,-13.21688 l 4.24101,-11.5 0.0879,-16.5 0.0879,-16.5 -4.5,-12.92916 c -2.48287,-7.13365 -5.25548,-13.38861 -6.18539,-13.95414 -1.18874,-0.72292 -4.97022,-0.50122 -12.83236,0.75235 -11.36187,1.81157 -22.76904,5.89167 -30.60736,10.94758 -2.13119,1.37467 -23.04989,21.7783 -46.486,45.34139 L 259.27777,263.5 l -3.58104,8.71179 c -1.96958,4.79149 -4.07907,11.31649 -4.68776,14.5 -0.76717,4.01238 -1.01502,29.94883 -0.80784,84.53836 L 250.5,450.0003 233.25,450.00015 216,450 l 0,-99.25338 z"
     style="fill:#d24c5d"
     sodipodi:nodetypes="ccccccscccccccccccsssscccccssscccsccccc" />
  <path
     id="path2822"
     d="m 129,394.23437 0,-55.76563 -11.94304,-11.91193 -15.94304,-15.91193 6.55078,-6.57491 17.16765,17.29794 13.16765,13.29794 0,57.66707 0,57.66708 -4.5,0 -4.5,0 0,-55.76563 z m 166,-4.04678 0,-59.81241 2.85211,-8.43759 c 1.56866,-4.64068 3.78354,-10.23759 4.92196,-12.43759 2.64965,-5.12049 42.26127,-44.39028 48.23643,-47.82019 7.51719,-4.31506 16.93803,-7.38168 27.9895,-9.111 13.01194,-2.03608 13.66021,-2.23319 14.31316,-4.35193 0.291,-0.94428 2.43756,-6.89188 4.77012,-13.21688 l 4.24101,-11.5 0.0879,-16.5 0.0879,-16.5 -3.84511,-11.5 c -2.11482,-6.325 -4.48433,-12.50737 -5.26559,-13.73861 -1.03701,-1.63427 -1.13887,-2.71411 -0.37735,-4 0.57372,-0.96876 2.64258,-6.48639 4.59747,-12.26139 3.30035,-9.74969 3.59209,-11.6076 4.08271,-26 0.46874,-13.75087 0.28199,-16.4592 -1.65495,-24 C 397.1148,87.622751 391.29729,74.940862 383.46167,62.8662 374.13176,48.48884 352.98634,26.369107 336.00796,13.225983 328.57858,7.4748329 322.14014,2.1462437 321.70031,1.3846734 321.02257,0.21115056 330.74388,0 385.45031,0 L 450,0 l 0,225 0,225 -34.41667,0 c -26.59766,0 -34.53125,-0.28398 -34.92105,-1.25 -0.40351,-1 -0.52017,-1 -0.58333,0 -0.0618,0.97915 -9.28772,1.25 -42.57895,1.25 l -42.5,0 0,-59.81241 z"
     style="fill:#71cd3c"
     sodipodi:nodetypes="cccccccccccccccsssscccccsssssssscccccssccc" />
  <path
     id="path2820"
     d="M 0,225 0,0 4,0 8,0 8,225 8,450 4,450 0,450 0,225 z m 381.78142,182.39536 0.28141,-42.60547 7.91337,-18.64495 c 10.70692,-25.22693 13.00265,-33.46259 13.73168,-49.2609 0.50915,-11.03343 0.29383,-13.79308 -1.71654,-22 -1.2643,-5.16122 -3.81319,-12.85156 -5.6642,-17.08964 l -3.36548,-7.7056 4.76917,-12.7944 L 402.5,224.5 l 0,-18 0,-18 -4.27095,-12.24804 -4.27094,-12.24804 4.65706,-14.24949 c 4.34217,-13.28596 4.68893,-15.12869 5.12827,-27.25196 C 404.1689,110.76221 403.95423,108.48071 401.53199,99 396.25011,78.326509 384.64932,59.132987 364.25501,37.325192 353.16075,25.462009 336.34207,10.990597 322.97046,1.8024519 320.6348,0.197527 324.03295,0.1020419 385.25,0.05245192 L 450,0 l 0,225 0,225 -34.25,4.2e-4 -34.25,4.2e-4 0.28142,-42.60548 z"
     style="fill:#23dc7b" />
  <path
     sodipodi:type="arc"
     style="fill:#71cd3c;fill-opacity:1;stroke:none"
     id="path3615"
     sodipodi:cx="90.135948"
     sodipodi:cy="293.6232"
     sodipodi:rx="25.104979"
     sodipodi:ry="25.104979"
     d="m 115.24093,293.6232 a 25.104979,25.104979 0 1 1 -50.20996,0 25.104979,25.104979 0 1 1 50.20996,0 z"
     transform="translate(0,0.11728732)" />
  <path
     sodipodi:type="arc"
     style="fill:#59879f;fill-opacity:1;stroke:none"
     id="path3615-3"
     sodipodi:cx="90.135948"
     sodipodi:cy="293.6232"
     sodipodi:rx="25.104979"
     sodipodi:ry="25.104979"
     d="m 115.24093,293.6232 a 25.104979,25.104979 0 1 1 -50.20996,0 25.104979,25.104979 0 1 1 50.20996,0 z"
     transform="translate(1.8575186e-6,-87.111252)" />
  <path
     sodipodi:type="arc"
     style="fill:#d24c5d;fill-opacity:1;stroke:none"
     id="path3615-3-3"
     sodipodi:cx="90.135948"
     sodipodi:cy="293.6232"
     sodipodi:rx="25.104979"
     sodipodi:ry="25.104979"
     d="m 115.24093,293.6232 a 25.104979,25.104979 0 1 1 -50.20996,0 25.104979,25.104979 0 1 1 50.20996,0 z"
     transform="translate(0.30247154,-173.92003)" />
</svg>
